<svg width="1500" height="27" viewBox="0 0 87 27" fill="none" xmlns="http://www.w3.org/2000/svg">
<g style="mix-blend-mode:multiply">
<mask id="path-1-outside-1" maskUnits="userSpaceOnUse" x="0" y="0" width="87" height="27" fill="black">
<rect fill="white" width="87" height="27"/>
<path d="M13.3135 10.8513C12.8535 10.8686 12.4156 10.8817 11.9998 10.8904C11.5929 10.8991 11.1949 10.9078 10.8057 10.9165C10.4164 10.9165 10.0316 10.9165 9.65126 10.9165C9.27089 10.9165 8.8861 10.9165 8.49688 10.9165C8.26689 11.3601 8.00593 11.8777 7.71402 12.4692C7.43095 13.052 7.13019 13.6653 6.81174 14.309C6.50213 14.9527 6.18811 15.6051 5.86965 16.2662C5.56005 16.9186 5.26371 17.5405 4.98064 18.132C4.69758 18.7149 4.44105 19.2411 4.21105 19.7109C3.98106 20.1893 3.7953 20.5677 3.65376 20.846C3.55646 21.0461 3.43704 21.2288 3.2955 21.394C3.15397 21.568 2.99917 21.7159 2.8311 21.8377C2.66302 21.9595 2.49053 22.0508 2.31361 22.1117C2.13669 22.1813 1.97305 22.2161 1.82267 22.2161C1.61037 22.2161 1.42018 22.1639 1.25211 22.0595C1.08404 21.9551 1 21.7898 1 21.5637C1 21.4506 1.02654 21.3158 1.07961 21.1592C1.13269 21.0113 1.20788 20.8373 1.30518 20.6373L5.98907 10.8773H5.28583C4.7993 10.8773 4.46758 10.8034 4.29067 10.6555C4.11375 10.5077 4.02529 10.3337 4.02529 10.1336C4.02529 9.92484 4.13586 9.72477 4.35701 9.5334C4.57816 9.33333 4.90103 9.2333 5.32563 9.2333H6.89135C7.51941 7.98939 8.14747 6.96294 8.77552 6.15397C9.41243 5.34499 10.0361 4.70564 10.6464 4.23591C11.2568 3.76618 11.8495 3.43998 12.4244 3.25731C13.0083 3.07463 13.5656 2.9833 14.0963 2.9833C14.344 2.9833 14.5784 3.03114 14.7996 3.12683C15.0296 3.22251 15.2286 3.36604 15.3967 3.55741C15.5736 3.74878 15.7151 3.99235 15.8213 4.2881C15.9274 4.57516 15.9805 4.9144 15.9805 5.30585C15.9805 5.67989 15.9274 6.09308 15.8213 6.54541C15.7947 6.66719 15.7416 6.77157 15.662 6.85856C15.5824 6.93685 15.494 7.00209 15.3967 7.05428C15.2994 7.10647 15.2021 7.14562 15.1047 7.17171C15.0074 7.18911 14.9234 7.19781 14.8526 7.19781C14.6757 7.19781 14.5121 7.15866 14.3617 7.08038C14.2113 6.99339 14.1361 6.86291 14.1361 6.68894C14.1361 6.57585 14.1405 6.47147 14.1494 6.37578C14.1671 6.2801 14.1759 6.18441 14.1759 6.08873C14.1759 5.72338 14.1052 5.46242 13.9636 5.30585C13.8309 5.14927 13.6496 5.07098 13.4196 5.07098C13.1454 5.07098 12.8225 5.18841 12.451 5.42328C12.0883 5.65814 11.7168 5.97129 11.3364 6.36273C10.9649 6.75418 10.6066 7.20216 10.2616 7.70668C9.91664 8.20251 9.63357 8.71138 9.41243 9.2333H12.5041C12.7783 9.2333 13.0348 9.23765 13.2737 9.24635C13.5125 9.25505 13.7204 9.28114 13.8973 9.32463C14.083 9.36813 14.2246 9.44207 14.3219 9.54645C14.428 9.64214 14.4811 9.78566 14.4811 9.97704C14.4811 10.0727 14.4634 10.1684 14.428 10.2641C14.3927 10.3598 14.3307 10.4511 14.2423 10.5381C14.1627 10.6164 14.0477 10.686 13.8973 10.7469C13.7469 10.7991 13.5523 10.8339 13.3135 10.8513Z"/>
<path d="M16.352 10.5642C16.3078 10.5555 16.268 10.5511 16.2326 10.5511C16.1972 10.5511 16.1574 10.5511 16.1132 10.5511C15.777 10.5511 15.463 10.6164 15.1711 10.7469C14.8792 10.8773 14.6094 11.0513 14.3617 11.2688C14.1229 11.4776 13.9061 11.7168 13.7115 11.9864C13.5258 12.2561 13.3577 12.5257 13.2073 12.7954C13.0569 13.0564 12.9287 13.3086 12.8225 13.5522C12.7252 13.7958 12.65 14.0002 12.5969 14.1654C12.9065 14.0089 13.225 13.8305 13.5523 13.6305C13.8884 13.4304 14.2025 13.239 14.4944 13.0564C14.7863 12.8737 15.0384 12.7084 15.2507 12.5605C15.4719 12.4127 15.6267 12.3126 15.7151 12.2604C16.1132 12.0169 16.3874 11.7907 16.5378 11.5819C16.6882 11.3645 16.7633 11.1775 16.7633 11.0209C16.7633 10.8904 16.7191 10.786 16.6307 10.7077C16.551 10.6294 16.4582 10.5816 16.352 10.5642ZM16.8297 8.76357C17.5639 8.76357 18.1123 8.93754 18.475 9.28549C18.8377 9.63344 19.019 10.1162 19.019 10.7338C19.019 11.0992 18.9217 11.4819 18.7271 11.882C18.5325 12.2822 18.1964 12.691 17.7187 13.1086C17.241 13.5174 16.5997 13.9393 15.7947 14.3742C14.9986 14.8005 13.999 15.231 12.796 15.666C12.8402 15.9182 12.9773 16.1183 13.2073 16.2662C13.4373 16.4054 13.7425 16.4749 14.1229 16.4749C14.5298 16.4749 14.9632 16.4184 15.4232 16.3053C15.892 16.1835 16.352 16.0313 16.8032 15.8486C17.2631 15.666 17.7099 15.4703 18.1433 15.2615C18.5768 15.044 18.966 14.8396 19.311 14.6482C19.6648 14.4569 19.9567 14.2916 20.1867 14.1524C20.4255 14.0132 20.5848 13.9262 20.6644 13.8914C20.744 13.8392 20.8148 13.8088 20.8767 13.8001C20.9474 13.7914 21.0094 13.7871 21.0624 13.7871C21.1686 13.7871 21.2571 13.8132 21.3278 13.8653C21.3986 13.9088 21.4561 13.9654 21.5003 14.035C21.5534 14.0959 21.5888 14.1654 21.6065 14.2437C21.6242 14.3133 21.633 14.3742 21.633 14.4264C21.633 14.5047 21.6242 14.6004 21.6065 14.7135C21.5888 14.8178 21.5224 14.9396 21.4074 15.0788C21.3632 15.1223 21.2128 15.2397 20.9563 15.4311C20.7086 15.6225 20.3857 15.8486 19.9877 16.1096C19.5896 16.3706 19.1252 16.6489 18.5944 16.9447C18.0725 17.2317 17.5152 17.497 16.9226 17.7406C16.3387 17.9842 15.7284 18.1842 15.0915 18.3408C14.4546 18.5061 13.8265 18.5887 13.2073 18.5887C12.6766 18.5887 12.2033 18.4887 11.7875 18.2886C11.3806 18.0886 11.0312 17.8189 10.7393 17.4796C10.4562 17.1404 10.2395 16.749 10.0891 16.3053C9.93876 15.8617 9.86357 15.3963 9.86357 14.9092C9.86357 14.5351 9.93876 14.1263 10.0891 13.6827C10.2395 13.2303 10.4562 12.778 10.7393 12.3257C11.0224 11.8733 11.3674 11.4341 11.7743 11.0078C12.19 10.5729 12.6544 10.1902 13.1675 9.8596C13.6806 9.52905 14.2423 9.26374 14.8526 9.06367C15.4719 8.8636 16.1309 8.76357 16.8297 8.76357Z"/>
<path d="M22.3362 10.3424C22.5132 9.96834 22.7343 9.68998 22.9997 9.50731C23.2651 9.32463 23.526 9.2333 23.7825 9.2333C23.9948 9.2333 24.185 9.31159 24.3531 9.46816C24.5212 9.61604 24.6052 9.83786 24.6052 10.1336C24.6052 10.2467 24.5919 10.3685 24.5654 10.499C24.5389 10.6294 24.4902 10.7686 24.4195 10.9165C24.6141 10.6729 24.8927 10.425 25.2554 10.1728C25.6181 9.9118 26.0161 9.68128 26.4496 9.48121C26.8919 9.27244 27.343 9.10282 27.803 8.97234C28.2718 8.84186 28.7141 8.77662 29.1299 8.77662C29.5987 8.77662 29.9879 8.8897 30.2975 9.11587C30.616 9.33333 30.7752 9.70738 30.7752 10.238C30.7752 10.5511 30.7266 10.8773 30.6293 11.2166C30.532 11.5558 30.4037 11.8951 30.2445 12.2343C30.0941 12.5736 29.9216 12.9085 29.727 13.239C29.5412 13.5609 29.3554 13.8653 29.1697 14.1524C28.9839 14.4395 28.8114 14.7048 28.6522 14.9483C28.5018 15.1832 28.3824 15.3789 28.2939 15.5355C28.1789 15.6747 28.1215 15.8356 28.1215 16.0183C28.1215 16.0879 28.1436 16.1487 28.1878 16.2009C28.232 16.2531 28.3028 16.2792 28.4001 16.2792C28.462 16.2792 28.5328 16.2749 28.6124 16.2662C28.692 16.2488 28.7893 16.2009 28.9043 16.1227C29.382 15.9487 29.8685 15.7312 30.3639 15.4703C30.8681 15.2093 31.3502 14.9353 31.8102 14.6482C32.2702 14.3525 32.6903 14.0611 33.0707 13.774C33.4599 13.4783 33.7828 13.2129 34.0393 12.9781C34.1101 12.9172 34.1809 12.8737 34.2516 12.8476C34.3224 12.8215 34.3888 12.8085 34.4507 12.8085C34.6011 12.8085 34.716 12.865 34.7957 12.9781C34.8841 13.0912 34.9284 13.2347 34.9284 13.4087C34.9284 13.6783 34.8399 13.9784 34.663 14.309C34.4949 14.6395 34.2251 14.9483 33.8536 15.2354C33.3494 15.592 32.885 15.9182 32.4604 16.214C32.0446 16.5097 31.6156 16.7881 31.1733 17.0491C30.7398 17.3013 30.271 17.5405 29.7668 17.7667C29.2714 17.9842 28.6876 18.1886 28.0153 18.38C27.7853 18.4495 27.573 18.5017 27.3784 18.5365C27.1926 18.5713 27.0201 18.5887 26.8609 18.5887C26.3921 18.5887 26.0471 18.4626 25.8259 18.2103C25.6136 17.9494 25.5075 17.5884 25.5075 17.1273C25.5075 17.0665 25.5075 17.0099 25.5075 16.9577C25.5163 16.8968 25.5252 16.8316 25.534 16.762C25.5517 16.4923 25.6225 16.1966 25.7463 15.8747C25.879 15.5529 26.0338 15.2223 26.2107 14.8831C26.3965 14.5438 26.5911 14.2089 26.7946 13.8784C26.998 13.5391 27.1838 13.2216 27.3519 12.9259C27.5288 12.6214 27.6747 12.3518 27.7897 12.1169C27.9047 11.882 27.9622 11.6907 27.9622 11.5428C27.9622 11.4123 27.9224 11.3036 27.8428 11.2166C27.772 11.1209 27.6615 11.0731 27.5111 11.0731C26.9449 11.0731 26.4054 11.2383 25.8923 11.5689C25.3881 11.8994 24.9148 12.3083 24.4725 12.7954C24.0302 13.2738 23.6233 13.7827 23.2518 14.322C22.8803 14.8613 22.553 15.3441 22.2699 15.7704C22.093 16.0574 21.9293 16.3662 21.779 16.6968C21.6374 17.0186 21.487 17.3231 21.3278 17.6101C21.1686 17.8885 20.9873 18.119 20.7838 18.3017C20.5892 18.493 20.3415 18.5887 20.0407 18.5887C19.7311 18.5887 19.4879 18.493 19.311 18.3017C19.134 18.1103 19.0456 17.8754 19.0456 17.5971C19.0456 17.4492 19.1075 17.21 19.2313 16.8794C19.3552 16.5489 19.5144 16.1661 19.709 15.7312C19.9036 15.2963 20.1204 14.8309 20.3592 14.3351C20.6069 13.8305 20.8501 13.3347 21.089 12.8476C21.3367 12.3518 21.5711 11.8864 21.7922 11.4515C22.0134 11.0165 22.1947 10.6468 22.3362 10.3424Z"/>
<path d="M40.9259 15.6138C40.917 15.6312 40.9126 15.6529 40.9126 15.679C40.9126 15.7051 40.9082 15.7269 40.8993 15.7443C40.8993 15.9008 40.9391 16.0661 41.0187 16.2401C41.0983 16.4054 41.2266 16.488 41.4035 16.488C41.4743 16.488 41.5274 16.4793 41.5628 16.4619C42.067 16.314 42.5756 16.0792 43.0887 15.7573C43.6106 15.4355 44.1104 15.0832 44.588 14.7004C45.0657 14.3177 45.5036 13.9262 45.9017 13.5261C46.3086 13.126 46.6447 12.7693 46.9101 12.4562C47.0339 12.3083 47.171 12.2343 47.3214 12.2343C47.4541 12.2343 47.5691 12.2952 47.6664 12.417C47.7726 12.5388 47.8256 12.7041 47.8256 12.9128C47.8256 13.0781 47.777 13.2738 47.6797 13.5C47.5912 13.7262 47.4408 13.9697 47.2285 14.2307C46.7066 14.7961 46.1715 15.3398 45.623 15.8617C45.0746 16.3836 44.5217 16.849 43.9644 17.2578C43.4071 17.658 42.8498 17.9798 42.2925 18.2234C41.7441 18.4669 41.2045 18.5887 40.6737 18.5887C40.028 18.5887 39.5194 18.4104 39.1478 18.0538C38.7763 17.6884 38.5905 17.1447 38.5905 16.4228C38.5905 16.3793 38.5905 16.3358 38.5905 16.2923C38.5905 16.2401 38.595 16.1922 38.6038 16.1487C38.4004 16.5141 38.1394 16.849 37.821 17.1534C37.5025 17.4492 37.1531 17.7058 36.7727 17.9233C36.3923 18.132 35.9987 18.293 35.5918 18.4061C35.1849 18.5278 34.7912 18.5887 34.4109 18.5887C34.0836 18.5887 33.7828 18.5452 33.5086 18.4582C33.2344 18.3713 32.9955 18.2321 32.7921 18.0407C32.5975 17.8493 32.4427 17.6058 32.3277 17.31C32.2215 17.0143 32.1684 16.6576 32.1684 16.2401C32.1684 15.5094 32.2834 14.8178 32.5134 14.1654C32.7434 13.5043 33.0486 12.8998 33.429 12.3518C33.8093 11.7951 34.2428 11.2992 34.7293 10.8643C35.2247 10.4207 35.7333 10.0466 36.2552 9.74217C36.786 9.42902 37.3123 9.18981 37.8342 9.02453C38.3561 8.85926 38.8338 8.77662 39.2673 8.77662C39.7715 8.77662 40.2049 8.85926 40.5676 9.02453C40.7445 9.11152 40.9082 9.22895 41.0585 9.37683C41.0939 9.29854 41.1293 9.2246 41.1647 9.15501C41.2532 8.94624 41.3328 8.76792 41.4035 8.62004C41.4743 8.46347 41.5229 8.35038 41.5495 8.28079C41.576 8.20251 41.6512 8.01983 41.7751 7.73278C41.8989 7.44572 42.0404 7.11082 42.1997 6.72808C42.3677 6.33664 42.5446 5.9191 42.7304 5.47547C42.925 5.03184 43.1019 4.6143 43.2612 4.22286C43.4204 3.83142 43.5575 3.49652 43.6725 3.21816C43.7875 2.93111 43.8583 2.74843 43.8848 2.67015C43.9467 2.45268 44.0308 2.24391 44.1369 2.04384C44.2431 1.83507 44.3669 1.65675 44.5084 1.50887C44.6588 1.3523 44.8313 1.23051 45.0259 1.14353C45.2205 1.04784 45.4417 1 45.6894 1C46.0255 1 46.3041 1.07394 46.5253 1.22182C46.7464 1.361 46.857 1.635 46.857 2.04384C46.857 2.20912 46.8349 2.37874 46.7907 2.55271C46.7464 2.72669 46.6934 2.89631 46.6314 3.06159C46.5784 3.22686 46.5164 3.39214 46.4457 3.55741C46.3838 3.71399 46.3263 3.86186 46.2732 4.00104C45.8309 4.87091 45.3665 5.81907 44.88 6.84551C44.3934 7.86326 43.9113 8.8897 43.4337 9.92484C42.956 10.96 42.5004 11.969 42.067 12.952C41.6335 13.9349 41.2532 14.8222 40.9259 15.6138ZM40.5278 10.512C39.997 10.5294 39.4397 10.6425 38.8559 10.8513C38.1836 11.0774 37.5688 11.4167 37.0116 11.869C36.4543 12.3126 35.981 12.8606 35.5918 13.513C35.2114 14.1654 34.9947 14.9135 34.9416 15.7573C34.9416 16.1053 35.092 16.2792 35.3928 16.2792C35.7643 16.2792 36.1181 16.2053 36.4543 16.0574C36.7904 15.9008 37.1089 15.6964 37.4096 15.4442C37.7192 15.1832 38.0067 14.8874 38.2721 14.5569C38.5375 14.2263 38.7807 13.8827 39.0019 13.5261C39.2319 13.1695 39.4353 12.8172 39.6122 12.4692C39.798 12.1126 39.9572 11.782 40.0899 11.4776C40.1341 11.3819 40.1961 11.247 40.2757 11.0731C40.3464 10.9078 40.4305 10.7208 40.5278 10.512Z"/>
<path d="M51.1694 10.5642C51.1251 10.5555 51.0853 10.5511 51.05 10.5511C51.0146 10.5511 50.9748 10.5511 50.9305 10.5511C50.5944 10.5511 50.2804 10.6164 49.9885 10.7469C49.6965 10.8773 49.4267 11.0513 49.1791 11.2688C48.9402 11.4776 48.7235 11.7168 48.5289 11.9864C48.3431 12.2561 48.175 12.5257 48.0247 12.7954C47.8743 13.0564 47.746 13.3086 47.6399 13.5522C47.5426 13.7958 47.4674 14.0002 47.4143 14.1654C47.7239 14.0089 48.0424 13.8305 48.3697 13.6305C48.7058 13.4304 49.0198 13.239 49.3117 13.0564C49.6037 12.8737 49.8558 12.7084 50.0681 12.5605C50.2892 12.4127 50.444 12.3126 50.5325 12.2604C50.9305 12.0169 51.2048 11.7907 51.3551 11.5819C51.5055 11.3645 51.5807 11.1775 51.5807 11.0209C51.5807 10.8904 51.5365 10.786 51.448 10.7077C51.3684 10.6294 51.2755 10.5816 51.1694 10.5642ZM51.6471 8.76357C52.3813 8.76357 52.9297 8.93754 53.2924 9.28549C53.6551 9.63344 53.8364 10.1162 53.8364 10.7338C53.8364 11.0992 53.7391 11.4819 53.5445 11.882C53.3499 12.2822 53.0137 12.691 52.5361 13.1086C52.0584 13.5174 51.4171 13.9393 50.6121 14.3742C49.816 14.8005 48.8164 15.231 47.6133 15.666C47.6576 15.9182 47.7947 16.1183 48.0247 16.2662C48.2547 16.4054 48.5598 16.4749 48.9402 16.4749C49.3471 16.4749 49.7806 16.4184 50.2406 16.3053C50.7094 16.1835 51.1694 16.0313 51.6205 15.8486C52.0805 15.666 52.5272 15.4703 52.9607 15.2615C53.3941 15.044 53.7833 14.8396 54.1283 14.6482C54.4822 14.4569 54.7741 14.2916 55.0041 14.1524C55.2429 14.0132 55.4021 13.9262 55.4817 13.8914C55.5614 13.8392 55.6321 13.8088 55.694 13.8001C55.7648 13.7914 55.8267 13.7871 55.8798 13.7871C55.986 13.7871 56.0744 13.8132 56.1452 13.8653C56.2159 13.9088 56.2734 13.9654 56.3177 14.035C56.3707 14.0959 56.4061 14.1654 56.4238 14.2437C56.4415 14.3133 56.4504 14.3742 56.4504 14.4264C56.4504 14.5047 56.4415 14.6004 56.4238 14.7135C56.4061 14.8178 56.3398 14.9396 56.2248 15.0788C56.1806 15.1223 56.0302 15.2397 55.7737 15.4311C55.526 15.6225 55.2031 15.8486 54.805 16.1096C54.407 16.3706 53.9426 16.6489 53.4118 16.9447C52.8899 17.2317 52.3326 17.497 51.7399 17.7406C51.1561 17.9842 50.5457 18.1842 49.9088 18.3408C49.2719 18.5061 48.6439 18.5887 48.0247 18.5887C47.4939 18.5887 47.0207 18.4887 46.6049 18.2886C46.198 18.0886 45.8486 17.8189 45.5567 17.4796C45.2736 17.1404 45.0569 16.749 44.9065 16.3053C44.7561 15.8617 44.6809 15.3963 44.6809 14.9092C44.6809 14.5351 44.7561 14.1263 44.9065 13.6827C45.0569 13.2303 45.2736 12.778 45.5567 12.3257C45.8397 11.8733 46.1847 11.4341 46.5916 11.0078C47.0074 10.5729 47.4718 10.1902 47.9849 9.8596C48.4979 9.52905 49.0596 9.26374 49.67 9.06367C50.2892 8.8636 50.9482 8.76357 51.6471 8.76357Z"/>
<path d="M59.6614 10.6555C60.0064 10.4468 60.3602 10.2554 60.7229 10.0814C61.0944 9.90745 61.4527 9.75957 61.7977 9.63779C62.1427 9.50731 62.47 9.40727 62.7796 9.33768C63.098 9.25939 63.3811 9.22025 63.6288 9.22025C64.0269 9.22025 64.332 9.31594 64.5443 9.50731C64.7655 9.68998 64.8761 10.0031 64.8761 10.4468C64.8761 10.5424 64.8716 10.6468 64.8628 10.7599C64.8539 10.8643 64.8363 10.9774 64.8097 11.0992C64.7655 11.3253 64.6328 11.5906 64.4116 11.8951C64.1905 12.1995 63.9295 12.517 63.6288 12.8476C63.3369 13.1781 63.0184 13.513 62.6734 13.8523C62.3373 14.1828 62.0233 14.4916 61.7313 14.7787C61.4483 15.0571 61.2094 15.3006 61.0148 15.5094C60.8291 15.7182 60.7362 15.8617 60.7362 15.94C60.7362 16.0096 60.7406 16.0574 60.7495 16.0835C60.7583 16.1096 60.7981 16.1227 60.8689 16.1227C61.3466 15.9226 61.8773 15.6834 62.4611 15.405C63.0538 15.118 63.6421 14.8265 64.2259 14.5308C64.8097 14.235 65.3626 13.948 65.8845 13.6696C66.4064 13.3826 66.8487 13.1347 67.2114 12.9259C67.291 12.8824 67.3706 12.8476 67.4502 12.8215C67.5387 12.7867 67.6183 12.7693 67.689 12.7693C67.8483 12.7693 67.981 12.8215 68.0871 12.9259C68.1933 13.0303 68.2463 13.1695 68.2463 13.3434C68.2463 13.5435 68.1579 13.774 67.981 14.035C67.8129 14.2872 67.5254 14.5525 67.1185 14.8309C66.8089 15.0223 66.4595 15.2397 66.0702 15.4833C65.6899 15.7182 65.2874 15.9661 64.8628 16.227C64.447 16.4793 64.0224 16.7272 63.589 16.9708C63.1644 17.2143 62.753 17.4318 62.355 17.6232C61.9569 17.8145 61.581 17.9711 61.2271 18.0929C60.8821 18.206 60.5814 18.2625 60.3249 18.2625C59.7145 18.2625 59.2545 18.119 58.9449 17.8319C58.6441 17.5449 58.4938 17.1752 58.4938 16.7229C58.4938 16.6533 58.4982 16.6011 58.507 16.5663C58.5689 16.1835 58.6839 15.8138 58.852 15.4572C59.0201 15.1006 59.2103 14.7613 59.4226 14.4395C59.6349 14.1176 59.856 13.8132 60.086 13.5261C60.316 13.2303 60.5239 12.9563 60.7097 12.7041C60.9043 12.4431 61.0635 12.2039 61.1873 11.9864C61.3112 11.769 61.3731 11.5689 61.3731 11.3862C61.3731 11.3427 61.3642 11.2992 61.3466 11.2557C61.3289 11.2122 61.2891 11.1905 61.2271 11.1905C61.121 11.1905 60.9441 11.2296 60.6964 11.3079C60.4575 11.3862 60.201 11.4906 59.9268 11.6211C59.6526 11.7516 59.3916 11.9038 59.1439 12.0778C58.8962 12.243 58.7193 12.4214 58.6132 12.6127C58.4716 12.8563 58.308 13.1651 58.1222 13.5391C57.9365 13.9132 57.7419 14.3046 57.5384 14.7135C57.3438 15.1223 57.1536 15.5268 56.9678 15.9269C56.7821 16.3271 56.6229 16.6707 56.4902 16.9577C56.384 17.21 56.2425 17.4362 56.0656 17.6362C55.8975 17.8363 55.7117 18.0059 55.5083 18.1451C55.3048 18.2843 55.0969 18.393 54.8846 18.4713C54.6723 18.5496 54.4777 18.5887 54.3008 18.5887C54.0974 18.5887 53.9337 18.5365 53.8099 18.4321C53.6949 18.3278 53.6374 18.1581 53.6374 17.9233C53.6374 17.8276 53.6506 17.7102 53.6772 17.571C53.7126 17.4231 53.7789 17.2622 53.8762 17.0882C54.0354 16.7924 54.1947 16.4706 54.3539 16.1227C54.522 15.7747 54.7121 15.3789 54.9244 14.9353C55.1367 14.483 55.38 13.9697 55.6542 13.3956C55.9373 12.8128 56.269 12.143 56.6494 11.3862C56.5256 11.2818 56.4194 11.1557 56.3309 11.0078C56.2513 10.8513 56.2115 10.6599 56.2115 10.4337C56.2115 10.2249 56.2558 10.0466 56.3442 9.89875C56.4327 9.74217 56.5521 9.61604 56.7025 9.52035C56.8528 9.42467 57.0253 9.35508 57.22 9.31159C57.4234 9.25939 57.6357 9.2333 57.8569 9.2333C58.0868 9.2333 58.3168 9.25505 58.5468 9.29854C58.7768 9.33333 58.9803 9.38987 59.1572 9.46816C59.343 9.54645 59.4933 9.64214 59.6083 9.75522C59.7233 9.8683 59.7808 9.99878 59.7808 10.1467C59.7808 10.1728 59.772 10.2076 59.7543 10.251C59.7366 10.2945 59.7145 10.3424 59.688 10.3946C59.6703 10.4468 59.6526 10.4946 59.6349 10.5381C59.6172 10.5816 59.6083 10.6164 59.6083 10.6425C59.6083 10.6599 59.6128 10.6686 59.6216 10.6686H59.6349L59.6614 10.6555Z"/>
<path d="M75.385 10.8513C74.925 10.8686 74.4871 10.8817 74.0713 10.8904C73.6644 10.8991 73.2664 10.9078 72.8772 10.9165C72.4879 10.9165 72.1031 10.9165 71.7228 10.9165C71.3424 10.9165 70.9576 10.9165 70.5684 10.9165C70.3384 11.3601 70.0774 11.8777 69.7855 12.4692C69.5024 13.052 69.2017 13.6653 68.8832 14.309C68.5736 14.9527 68.2596 15.6051 67.9412 16.2662C67.6315 16.9186 67.3352 17.5405 67.0521 18.132C66.7691 18.7149 66.5125 19.2411 66.2826 19.7109C66.0526 20.1893 65.8668 20.5677 65.7253 20.846C65.628 21.0461 65.5085 21.2288 65.367 21.394C65.2255 21.568 65.0707 21.7159 64.9026 21.8377C64.7345 21.9595 64.562 22.0508 64.3851 22.1117C64.2082 22.1813 64.0445 22.2161 63.8942 22.2161C63.6819 22.2161 63.4917 22.1639 63.3236 22.0595C63.1555 21.9551 63.0715 21.7898 63.0715 21.5637C63.0715 21.4506 63.098 21.3158 63.1511 21.1592C63.2042 21.0113 63.2794 20.8373 63.3767 20.6373L68.0606 10.8773H67.3573C66.8708 10.8773 66.5391 10.8034 66.3622 10.6555C66.1852 10.5077 66.0968 10.3337 66.0968 10.1336C66.0968 9.92484 66.2074 9.72477 66.4285 9.5334C66.6497 9.33333 66.9725 9.2333 67.3971 9.2333H68.9629C69.5909 7.98939 70.219 6.96294 70.847 6.15397C71.4839 5.34499 72.1076 4.70564 72.7179 4.23591C73.3283 3.76618 73.921 3.43998 74.4959 3.25731C75.0798 3.07463 75.6371 2.9833 76.1678 2.9833C76.4155 2.9833 76.6499 3.03114 76.8711 3.12683C77.1011 3.22251 77.3001 3.36604 77.4682 3.55741C77.6451 3.74878 77.7866 3.99235 77.8928 4.2881C77.9989 4.57516 78.052 4.9144 78.052 5.30585C78.052 5.67989 77.9989 6.09308 77.8928 6.54541C77.8662 6.66719 77.8131 6.77157 77.7335 6.85856C77.6539 6.93685 77.5655 7.00209 77.4682 7.05428C77.3709 7.10647 77.2735 7.14562 77.1762 7.17171C77.0789 7.18911 76.9949 7.19781 76.9241 7.19781C76.7472 7.19781 76.5836 7.15866 76.4332 7.08038C76.2828 6.99339 76.2076 6.86291 76.2076 6.68894C76.2076 6.57585 76.212 6.47147 76.2209 6.37578C76.2386 6.2801 76.2474 6.18441 76.2474 6.08873C76.2474 5.72338 76.1767 5.46242 76.0351 5.30585C75.9024 5.14927 75.7211 5.07098 75.4911 5.07098C75.2169 5.07098 74.894 5.18841 74.5225 5.42328C74.1598 5.65814 73.7883 5.97129 73.4079 6.36273C73.0364 6.75418 72.6781 7.20216 72.3331 7.70668C71.9881 8.20251 71.7051 8.71138 71.4839 9.2333H74.5756C74.8498 9.2333 75.1063 9.23765 75.3451 9.24635C75.584 9.25505 75.7919 9.28114 75.9688 9.32463C76.1545 9.36813 76.2961 9.44207 76.3934 9.54645C76.4995 9.64214 76.5526 9.78566 76.5526 9.97704C76.5526 10.0727 76.5349 10.1684 76.4995 10.2641C76.4642 10.3598 76.4022 10.4511 76.3138 10.5381C76.2342 10.6164 76.1192 10.686 75.9688 10.7469C75.8184 10.7991 75.6238 10.8339 75.385 10.8513Z"/>
<path d="M80.9579 9.99008C81.2055 9.79871 81.4134 9.65518 81.5815 9.5595C81.7584 9.45511 81.9088 9.38118 82.0326 9.33768C82.1565 9.28549 82.267 9.25505 82.3644 9.24635C82.4705 9.23765 82.5767 9.2333 82.6828 9.2333C82.8686 9.2333 83.0013 9.30289 83.0809 9.44207C83.1605 9.57255 83.2003 9.71173 83.2003 9.8596C83.2003 9.98138 83.1782 10.0945 83.1339 10.1989L80.1617 16.2923C80.5863 15.9791 81.0729 15.6747 81.6213 15.3789C82.1786 15.0745 82.7093 14.8048 83.2136 14.5699C83.7266 14.3264 84.1645 14.1307 84.5272 13.9828C84.8987 13.8349 85.111 13.761 85.1641 13.761C85.3852 13.761 85.5798 13.8436 85.7479 14.0089C85.916 14.1741 86 14.3829 86 14.6352C86 14.8613 85.9115 15.1006 85.7346 15.3528C85.5666 15.6051 85.2658 15.8486 84.8323 16.0835C84.2131 16.4228 83.6735 16.7142 83.2136 16.9577C82.7536 17.1926 82.3467 17.4057 81.9928 17.5971C81.639 17.7884 81.325 17.9624 81.0507 18.119C80.7765 18.2756 80.5156 18.4365 80.2679 18.6018C80.029 18.767 79.7902 18.941 79.5514 19.1237C79.3214 19.3151 79.0693 19.5369 78.795 19.7891C78.5916 20.3111 78.3881 20.8112 78.1847 21.2897C77.9901 21.7681 77.8087 22.19 77.6407 22.5553C77.4814 22.9207 77.3487 23.2164 77.2426 23.4426C77.1364 23.6688 77.0789 23.7905 77.0701 23.8079C76.3536 25.2693 75.5663 26 74.7082 26C74.3544 26 74.0669 25.8826 73.8458 25.6477C73.6246 25.4215 73.5141 25.1127 73.5141 24.7213C73.5141 24.3559 73.5583 23.9906 73.6467 23.6253C73.744 23.2686 73.9077 22.8728 74.1377 22.4379C74.3765 22.003 74.6861 21.5158 75.0665 20.9765C75.4557 20.4459 75.9422 19.8196 76.5261 19.0976L79.1798 13.8132C77.853 15.3615 76.6499 16.5445 75.5707 17.3622C74.4915 18.1799 73.4831 18.5887 72.5454 18.5887C72.2447 18.5887 71.9881 18.5191 71.7758 18.38C71.5635 18.2495 71.4574 18.0277 71.4574 17.7145C71.4574 17.2796 71.5635 16.7881 71.7758 16.2401C71.8997 15.9443 72.0235 15.6747 72.1474 15.4311C72.2712 15.1788 72.3995 14.9309 72.5322 14.6874C72.6648 14.4351 72.802 14.1654 72.9435 13.8784C73.0939 13.5913 73.2531 13.2695 73.4212 12.9128C73.5981 12.5475 73.7883 12.13 73.9917 11.6602C74.204 11.1818 74.4384 10.6251 74.695 9.99008C74.8719 9.65083 75.1019 9.40727 75.385 9.25939C75.668 9.10282 75.9422 9.02453 76.2076 9.02453C76.4818 9.02453 76.7118 9.08977 76.8976 9.22025C77.0922 9.34203 77.1895 9.50731 77.1895 9.71607C77.1895 9.82046 77.1718 9.9118 77.1364 9.99008L74.7082 14.9614C74.5844 15.2136 74.5225 15.4137 74.5225 15.5616C74.5225 15.6921 74.5756 15.7573 74.6817 15.7573C74.779 15.7573 74.9029 15.7095 75.0532 15.6138C75.2036 15.5181 75.3451 15.4094 75.4778 15.2876L80.9579 9.99008Z"/>
</mask>
<path d="M13.3135 10.8513C12.8535 10.8686 12.4156 10.8817 11.9998 10.8904C11.5929 10.8991 11.1949 10.9078 10.8057 10.9165C10.4164 10.9165 10.0316 10.9165 9.65126 10.9165C9.27089 10.9165 8.8861 10.9165 8.49688 10.9165C8.26689 11.3601 8.00593 11.8777 7.71402 12.4692C7.43095 13.052 7.13019 13.6653 6.81174 14.309C6.50213 14.9527 6.18811 15.6051 5.86965 16.2662C5.56005 16.9186 5.26371 17.5405 4.98064 18.132C4.69758 18.7149 4.44105 19.2411 4.21105 19.7109C3.98106 20.1893 3.7953 20.5677 3.65376 20.846C3.55646 21.0461 3.43704 21.2288 3.2955 21.394C3.15397 21.568 2.99917 21.7159 2.8311 21.8377C2.66302 21.9595 2.49053 22.0508 2.31361 22.1117C2.13669 22.1813 1.97305 22.2161 1.82267 22.2161C1.61037 22.2161 1.42018 22.1639 1.25211 22.0595C1.08404 21.9551 1 21.7898 1 21.5637C1 21.4506 1.02654 21.3158 1.07961 21.1592C1.13269 21.0113 1.20788 20.8373 1.30518 20.6373L5.98907 10.8773H5.28583C4.7993 10.8773 4.46758 10.8034 4.29067 10.6555C4.11375 10.5077 4.02529 10.3337 4.02529 10.1336C4.02529 9.92484 4.13586 9.72477 4.35701 9.5334C4.57816 9.33333 4.90103 9.2333 5.32563 9.2333H6.89135C7.51941 7.98939 8.14747 6.96294 8.77552 6.15397C9.41243 5.34499 10.0361 4.70564 10.6464 4.23591C11.2568 3.76618 11.8495 3.43998 12.4244 3.25731C13.0083 3.07463 13.5656 2.9833 14.0963 2.9833C14.344 2.9833 14.5784 3.03114 14.7996 3.12683C15.0296 3.22251 15.2286 3.36604 15.3967 3.55741C15.5736 3.74878 15.7151 3.99235 15.8213 4.2881C15.9274 4.57516 15.9805 4.9144 15.9805 5.30585C15.9805 5.67989 15.9274 6.09308 15.8213 6.54541C15.7947 6.66719 15.7416 6.77157 15.662 6.85856C15.5824 6.93685 15.494 7.00209 15.3967 7.05428C15.2994 7.10647 15.2021 7.14562 15.1047 7.17171C15.0074 7.18911 14.9234 7.19781 14.8526 7.19781C14.6757 7.19781 14.5121 7.15866 14.3617 7.08038C14.2113 6.99339 14.1361 6.86291 14.1361 6.68894C14.1361 6.57585 14.1405 6.47147 14.1494 6.37578C14.1671 6.2801 14.1759 6.18441 14.1759 6.08873C14.1759 5.72338 14.1052 5.46242 13.9636 5.30585C13.8309 5.14927 13.6496 5.07098 13.4196 5.07098C13.1454 5.07098 12.8225 5.18841 12.451 5.42328C12.0883 5.65814 11.7168 5.97129 11.3364 6.36273C10.9649 6.75418 10.6066 7.20216 10.2616 7.70668C9.91664 8.20251 9.63357 8.71138 9.41243 9.2333H12.5041C12.7783 9.2333 13.0348 9.23765 13.2737 9.24635C13.5125 9.25505 13.7204 9.28114 13.8973 9.32463C14.083 9.36813 14.2246 9.44207 14.3219 9.54645C14.428 9.64214 14.4811 9.78566 14.4811 9.97704C14.4811 10.0727 14.4634 10.1684 14.428 10.2641C14.3927 10.3598 14.3307 10.4511 14.2423 10.5381C14.1627 10.6164 14.0477 10.686 13.8973 10.7469C13.7469 10.7991 13.5523 10.8339 13.3135 10.8513Z" fill="#FF1818"/>
<path d="M16.352 10.5642C16.3078 10.5555 16.268 10.5511 16.2326 10.5511C16.1972 10.5511 16.1574 10.5511 16.1132 10.5511C15.777 10.5511 15.463 10.6164 15.1711 10.7469C14.8792 10.8773 14.6094 11.0513 14.3617 11.2688C14.1229 11.4776 13.9061 11.7168 13.7115 11.9864C13.5258 12.2561 13.3577 12.5257 13.2073 12.7954C13.0569 13.0564 12.9287 13.3086 12.8225 13.5522C12.7252 13.7958 12.65 14.0002 12.5969 14.1654C12.9065 14.0089 13.225 13.8305 13.5523 13.6305C13.8884 13.4304 14.2025 13.239 14.4944 13.0564C14.7863 12.8737 15.0384 12.7084 15.2507 12.5605C15.4719 12.4127 15.6267 12.3126 15.7151 12.2604C16.1132 12.0169 16.3874 11.7907 16.5378 11.5819C16.6882 11.3645 16.7633 11.1775 16.7633 11.0209C16.7633 10.8904 16.7191 10.786 16.6307 10.7077C16.551 10.6294 16.4582 10.5816 16.352 10.5642ZM16.8297 8.76357C17.5639 8.76357 18.1123 8.93754 18.475 9.28549C18.8377 9.63344 19.019 10.1162 19.019 10.7338C19.019 11.0992 18.9217 11.4819 18.7271 11.882C18.5325 12.2822 18.1964 12.691 17.7187 13.1086C17.241 13.5174 16.5997 13.9393 15.7947 14.3742C14.9986 14.8005 13.999 15.231 12.796 15.666C12.8402 15.9182 12.9773 16.1183 13.2073 16.2662C13.4373 16.4054 13.7425 16.4749 14.1229 16.4749C14.5298 16.4749 14.9632 16.4184 15.4232 16.3053C15.892 16.1835 16.352 16.0313 16.8032 15.8486C17.2631 15.666 17.7099 15.4703 18.1433 15.2615C18.5768 15.044 18.966 14.8396 19.311 14.6482C19.6648 14.4569 19.9567 14.2916 20.1867 14.1524C20.4255 14.0132 20.5848 13.9262 20.6644 13.8914C20.744 13.8392 20.8148 13.8088 20.8767 13.8001C20.9474 13.7914 21.0094 13.7871 21.0624 13.7871C21.1686 13.7871 21.2571 13.8132 21.3278 13.8653C21.3986 13.9088 21.4561 13.9654 21.5003 14.035C21.5534 14.0959 21.5888 14.1654 21.6065 14.2437C21.6242 14.3133 21.633 14.3742 21.633 14.4264C21.633 14.5047 21.6242 14.6004 21.6065 14.7135C21.5888 14.8178 21.5224 14.9396 21.4074 15.0788C21.3632 15.1223 21.2128 15.2397 20.9563 15.4311C20.7086 15.6225 20.3857 15.8486 19.9877 16.1096C19.5896 16.3706 19.1252 16.6489 18.5944 16.9447C18.0725 17.2317 17.5152 17.497 16.9226 17.7406C16.3387 17.9842 15.7284 18.1842 15.0915 18.3408C14.4546 18.5061 13.8265 18.5887 13.2073 18.5887C12.6766 18.5887 12.2033 18.4887 11.7875 18.2886C11.3806 18.0886 11.0312 17.8189 10.7393 17.4796C10.4562 17.1404 10.2395 16.749 10.0891 16.3053C9.93876 15.8617 9.86357 15.3963 9.86357 14.9092C9.86357 14.5351 9.93876 14.1263 10.0891 13.6827C10.2395 13.2303 10.4562 12.778 10.7393 12.3257C11.0224 11.8733 11.3674 11.4341 11.7743 11.0078C12.19 10.5729 12.6544 10.1902 13.1675 9.8596C13.6806 9.52905 14.2423 9.26374 14.8526 9.06367C15.4719 8.8636 16.1309 8.76357 16.8297 8.76357Z" fill="#FF1818"/>
<path d="M22.3362 10.3424C22.5132 9.96834 22.7343 9.68998 22.9997 9.50731C23.2651 9.32463 23.526 9.2333 23.7825 9.2333C23.9948 9.2333 24.185 9.31159 24.3531 9.46816C24.5212 9.61604 24.6052 9.83786 24.6052 10.1336C24.6052 10.2467 24.5919 10.3685 24.5654 10.499C24.5389 10.6294 24.4902 10.7686 24.4195 10.9165C24.6141 10.6729 24.8927 10.425 25.2554 10.1728C25.6181 9.9118 26.0161 9.68128 26.4496 9.48121C26.8919 9.27244 27.343 9.10282 27.803 8.97234C28.2718 8.84186 28.7141 8.77662 29.1299 8.77662C29.5987 8.77662 29.9879 8.8897 30.2975 9.11587C30.616 9.33333 30.7752 9.70738 30.7752 10.238C30.7752 10.5511 30.7266 10.8773 30.6293 11.2166C30.532 11.5558 30.4037 11.8951 30.2445 12.2343C30.0941 12.5736 29.9216 12.9085 29.727 13.239C29.5412 13.5609 29.3554 13.8653 29.1697 14.1524C28.9839 14.4395 28.8114 14.7048 28.6522 14.9483C28.5018 15.1832 28.3824 15.3789 28.2939 15.5355C28.1789 15.6747 28.1215 15.8356 28.1215 16.0183C28.1215 16.0879 28.1436 16.1487 28.1878 16.2009C28.232 16.2531 28.3028 16.2792 28.4001 16.2792C28.462 16.2792 28.5328 16.2749 28.6124 16.2662C28.692 16.2488 28.7893 16.2009 28.9043 16.1227C29.382 15.9487 29.8685 15.7312 30.3639 15.4703C30.8681 15.2093 31.3502 14.9353 31.8102 14.6482C32.2702 14.3525 32.6903 14.0611 33.0707 13.774C33.4599 13.4783 33.7828 13.2129 34.0393 12.9781C34.1101 12.9172 34.1809 12.8737 34.2516 12.8476C34.3224 12.8215 34.3888 12.8085 34.4507 12.8085C34.6011 12.8085 34.716 12.865 34.7957 12.9781C34.8841 13.0912 34.9284 13.2347 34.9284 13.4087C34.9284 13.6783 34.8399 13.9784 34.663 14.309C34.4949 14.6395 34.2251 14.9483 33.8536 15.2354C33.3494 15.592 32.885 15.9182 32.4604 16.214C32.0446 16.5097 31.6156 16.7881 31.1733 17.0491C30.7398 17.3013 30.271 17.5405 29.7668 17.7667C29.2714 17.9842 28.6876 18.1886 28.0153 18.38C27.7853 18.4495 27.573 18.5017 27.3784 18.5365C27.1926 18.5713 27.0201 18.5887 26.8609 18.5887C26.3921 18.5887 26.0471 18.4626 25.8259 18.2103C25.6136 17.9494 25.5075 17.5884 25.5075 17.1273C25.5075 17.0665 25.5075 17.0099 25.5075 16.9577C25.5163 16.8968 25.5252 16.8316 25.534 16.762C25.5517 16.4923 25.6225 16.1966 25.7463 15.8747C25.879 15.5529 26.0338 15.2223 26.2107 14.8831C26.3965 14.5438 26.5911 14.2089 26.7946 13.8784C26.998 13.5391 27.1838 13.2216 27.3519 12.9259C27.5288 12.6214 27.6747 12.3518 27.7897 12.1169C27.9047 11.882 27.9622 11.6907 27.9622 11.5428C27.9622 11.4123 27.9224 11.3036 27.8428 11.2166C27.772 11.1209 27.6615 11.0731 27.5111 11.0731C26.9449 11.0731 26.4054 11.2383 25.8923 11.5689C25.3881 11.8994 24.9148 12.3083 24.4725 12.7954C24.0302 13.2738 23.6233 13.7827 23.2518 14.322C22.8803 14.8613 22.553 15.3441 22.2699 15.7704C22.093 16.0574 21.9293 16.3662 21.779 16.6968C21.6374 17.0186 21.487 17.3231 21.3278 17.6101C21.1686 17.8885 20.9873 18.119 20.7838 18.3017C20.5892 18.493 20.3415 18.5887 20.0407 18.5887C19.7311 18.5887 19.4879 18.493 19.311 18.3017C19.134 18.1103 19.0456 17.8754 19.0456 17.5971C19.0456 17.4492 19.1075 17.21 19.2313 16.8794C19.3552 16.5489 19.5144 16.1661 19.709 15.7312C19.9036 15.2963 20.1204 14.8309 20.3592 14.3351C20.6069 13.8305 20.8501 13.3347 21.089 12.8476C21.3367 12.3518 21.5711 11.8864 21.7922 11.4515C22.0134 11.0165 22.1947 10.6468 22.3362 10.3424Z" fill="#FF1818"/>
<path d="M40.9259 15.6138C40.917 15.6312 40.9126 15.6529 40.9126 15.679C40.9126 15.7051 40.9082 15.7269 40.8993 15.7443C40.8993 15.9008 40.9391 16.0661 41.0187 16.2401C41.0983 16.4054 41.2266 16.488 41.4035 16.488C41.4743 16.488 41.5274 16.4793 41.5628 16.4619C42.067 16.314 42.5756 16.0792 43.0887 15.7573C43.6106 15.4355 44.1104 15.0832 44.588 14.7004C45.0657 14.3177 45.5036 13.9262 45.9017 13.5261C46.3086 13.126 46.6447 12.7693 46.9101 12.4562C47.0339 12.3083 47.171 12.2343 47.3214 12.2343C47.4541 12.2343 47.5691 12.2952 47.6664 12.417C47.7726 12.5388 47.8256 12.7041 47.8256 12.9128C47.8256 13.0781 47.777 13.2738 47.6797 13.5C47.5912 13.7262 47.4408 13.9697 47.2285 14.2307C46.7066 14.7961 46.1715 15.3398 45.623 15.8617C45.0746 16.3836 44.5217 16.849 43.9644 17.2578C43.4071 17.658 42.8498 17.9798 42.2925 18.2234C41.7441 18.4669 41.2045 18.5887 40.6737 18.5887C40.028 18.5887 39.5194 18.4104 39.1478 18.0538C38.7763 17.6884 38.5905 17.1447 38.5905 16.4228C38.5905 16.3793 38.5905 16.3358 38.5905 16.2923C38.5905 16.2401 38.595 16.1922 38.6038 16.1487C38.4004 16.5141 38.1394 16.849 37.821 17.1534C37.5025 17.4492 37.1531 17.7058 36.7727 17.9233C36.3923 18.132 35.9987 18.293 35.5918 18.4061C35.1849 18.5278 34.7912 18.5887 34.4109 18.5887C34.0836 18.5887 33.7828 18.5452 33.5086 18.4582C33.2344 18.3713 32.9955 18.2321 32.7921 18.0407C32.5975 17.8493 32.4427 17.6058 32.3277 17.31C32.2215 17.0143 32.1684 16.6576 32.1684 16.2401C32.1684 15.5094 32.2834 14.8178 32.5134 14.1654C32.7434 13.5043 33.0486 12.8998 33.429 12.3518C33.8093 11.7951 34.2428 11.2992 34.7293 10.8643C35.2247 10.4207 35.7333 10.0466 36.2552 9.74217C36.786 9.42902 37.3123 9.18981 37.8342 9.02453C38.3561 8.85926 38.8338 8.77662 39.2673 8.77662C39.7715 8.77662 40.2049 8.85926 40.5676 9.02453C40.7445 9.11152 40.9082 9.22895 41.0585 9.37683C41.0939 9.29854 41.1293 9.2246 41.1647 9.15501C41.2532 8.94624 41.3328 8.76792 41.4035 8.62004C41.4743 8.46347 41.5229 8.35038 41.5495 8.28079C41.576 8.20251 41.6512 8.01983 41.7751 7.73278C41.8989 7.44572 42.0404 7.11082 42.1997 6.72808C42.3677 6.33664 42.5446 5.9191 42.7304 5.47547C42.925 5.03184 43.1019 4.6143 43.2612 4.22286C43.4204 3.83142 43.5575 3.49652 43.6725 3.21816C43.7875 2.93111 43.8583 2.74843 43.8848 2.67015C43.9467 2.45268 44.0308 2.24391 44.1369 2.04384C44.2431 1.83507 44.3669 1.65675 44.5084 1.50887C44.6588 1.3523 44.8313 1.23051 45.0259 1.14353C45.2205 1.04784 45.4417 1 45.6894 1C46.0255 1 46.3041 1.07394 46.5253 1.22182C46.7464 1.361 46.857 1.635 46.857 2.04384C46.857 2.20912 46.8349 2.37874 46.7907 2.55271C46.7464 2.72669 46.6934 2.89631 46.6314 3.06159C46.5784 3.22686 46.5164 3.39214 46.4457 3.55741C46.3838 3.71399 46.3263 3.86186 46.2732 4.00104C45.8309 4.87091 45.3665 5.81907 44.88 6.84551C44.3934 7.86326 43.9113 8.8897 43.4337 9.92484C42.956 10.96 42.5004 11.969 42.067 12.952C41.6335 13.9349 41.2532 14.8222 40.9259 15.6138ZM40.5278 10.512C39.997 10.5294 39.4397 10.6425 38.8559 10.8513C38.1836 11.0774 37.5688 11.4167 37.0116 11.869C36.4543 12.3126 35.981 12.8606 35.5918 13.513C35.2114 14.1654 34.9947 14.9135 34.9416 15.7573C34.9416 16.1053 35.092 16.2792 35.3928 16.2792C35.7643 16.2792 36.1181 16.2053 36.4543 16.0574C36.7904 15.9008 37.1089 15.6964 37.4096 15.4442C37.7192 15.1832 38.0067 14.8874 38.2721 14.5569C38.5375 14.2263 38.7807 13.8827 39.0019 13.5261C39.2319 13.1695 39.4353 12.8172 39.6122 12.4692C39.798 12.1126 39.9572 11.782 40.0899 11.4776C40.1341 11.3819 40.1961 11.247 40.2757 11.0731C40.3464 10.9078 40.4305 10.7208 40.5278 10.512Z" fill="#FF1818"/>
<path d="M51.1694 10.5642C51.1251 10.5555 51.0853 10.5511 51.05 10.5511C51.0146 10.5511 50.9748 10.5511 50.9305 10.5511C50.5944 10.5511 50.2804 10.6164 49.9885 10.7469C49.6965 10.8773 49.4267 11.0513 49.1791 11.2688C48.9402 11.4776 48.7235 11.7168 48.5289 11.9864C48.3431 12.2561 48.175 12.5257 48.0247 12.7954C47.8743 13.0564 47.746 13.3086 47.6399 13.5522C47.5426 13.7958 47.4674 14.0002 47.4143 14.1654C47.7239 14.0089 48.0424 13.8305 48.3697 13.6305C48.7058 13.4304 49.0198 13.239 49.3117 13.0564C49.6037 12.8737 49.8558 12.7084 50.0681 12.5605C50.2892 12.4127 50.444 12.3126 50.5325 12.2604C50.9305 12.0169 51.2048 11.7907 51.3551 11.5819C51.5055 11.3645 51.5807 11.1775 51.5807 11.0209C51.5807 10.8904 51.5365 10.786 51.448 10.7077C51.3684 10.6294 51.2755 10.5816 51.1694 10.5642ZM51.6471 8.76357C52.3813 8.76357 52.9297 8.93754 53.2924 9.28549C53.6551 9.63344 53.8364 10.1162 53.8364 10.7338C53.8364 11.0992 53.7391 11.4819 53.5445 11.882C53.3499 12.2822 53.0137 12.691 52.5361 13.1086C52.0584 13.5174 51.4171 13.9393 50.6121 14.3742C49.816 14.8005 48.8164 15.231 47.6133 15.666C47.6576 15.9182 47.7947 16.1183 48.0247 16.2662C48.2547 16.4054 48.5598 16.4749 48.9402 16.4749C49.3471 16.4749 49.7806 16.4184 50.2406 16.3053C50.7094 16.1835 51.1694 16.0313 51.6205 15.8486C52.0805 15.666 52.5272 15.4703 52.9607 15.2615C53.3941 15.044 53.7833 14.8396 54.1283 14.6482C54.4822 14.4569 54.7741 14.2916 55.0041 14.1524C55.2429 14.0132 55.4021 13.9262 55.4817 13.8914C55.5614 13.8392 55.6321 13.8088 55.694 13.8001C55.7648 13.7914 55.8267 13.7871 55.8798 13.7871C55.986 13.7871 56.0744 13.8132 56.1452 13.8653C56.2159 13.9088 56.2734 13.9654 56.3177 14.035C56.3707 14.0959 56.4061 14.1654 56.4238 14.2437C56.4415 14.3133 56.4504 14.3742 56.4504 14.4264C56.4504 14.5047 56.4415 14.6004 56.4238 14.7135C56.4061 14.8178 56.3398 14.9396 56.2248 15.0788C56.1806 15.1223 56.0302 15.2397 55.7737 15.4311C55.526 15.6225 55.2031 15.8486 54.805 16.1096C54.407 16.3706 53.9426 16.6489 53.4118 16.9447C52.8899 17.2317 52.3326 17.497 51.7399 17.7406C51.1561 17.9842 50.5457 18.1842 49.9088 18.3408C49.2719 18.5061 48.6439 18.5887 48.0247 18.5887C47.4939 18.5887 47.0207 18.4887 46.6049 18.2886C46.198 18.0886 45.8486 17.8189 45.5567 17.4796C45.2736 17.1404 45.0569 16.749 44.9065 16.3053C44.7561 15.8617 44.6809 15.3963 44.6809 14.9092C44.6809 14.5351 44.7561 14.1263 44.9065 13.6827C45.0569 13.2303 45.2736 12.778 45.5567 12.3257C45.8397 11.8733 46.1847 11.4341 46.5916 11.0078C47.0074 10.5729 47.4718 10.1902 47.9849 9.8596C48.4979 9.52905 49.0596 9.26374 49.67 9.06367C50.2892 8.8636 50.9482 8.76357 51.6471 8.76357Z" fill="#FF1818"/>
<path d="M59.6614 10.6555C60.0064 10.4468 60.3602 10.2554 60.7229 10.0814C61.0944 9.90745 61.4527 9.75957 61.7977 9.63779C62.1427 9.50731 62.47 9.40727 62.7796 9.33768C63.098 9.25939 63.3811 9.22025 63.6288 9.22025C64.0269 9.22025 64.332 9.31594 64.5443 9.50731C64.7655 9.68998 64.8761 10.0031 64.8761 10.4468C64.8761 10.5424 64.8716 10.6468 64.8628 10.7599C64.8539 10.8643 64.8363 10.9774 64.8097 11.0992C64.7655 11.3253 64.6328 11.5906 64.4116 11.8951C64.1905 12.1995 63.9295 12.517 63.6288 12.8476C63.3369 13.1781 63.0184 13.513 62.6734 13.8523C62.3373 14.1828 62.0233 14.4916 61.7313 14.7787C61.4483 15.0571 61.2094 15.3006 61.0148 15.5094C60.8291 15.7182 60.7362 15.8617 60.7362 15.94C60.7362 16.0096 60.7406 16.0574 60.7495 16.0835C60.7583 16.1096 60.7981 16.1227 60.8689 16.1227C61.3466 15.9226 61.8773 15.6834 62.4611 15.405C63.0538 15.118 63.6421 14.8265 64.2259 14.5308C64.8097 14.235 65.3626 13.948 65.8845 13.6696C66.4064 13.3826 66.8487 13.1347 67.2114 12.9259C67.291 12.8824 67.3706 12.8476 67.4502 12.8215C67.5387 12.7867 67.6183 12.7693 67.689 12.7693C67.8483 12.7693 67.981 12.8215 68.0871 12.9259C68.1933 13.0303 68.2463 13.1695 68.2463 13.3434C68.2463 13.5435 68.1579 13.774 67.981 14.035C67.8129 14.2872 67.5254 14.5525 67.1185 14.8309C66.8089 15.0223 66.4595 15.2397 66.0702 15.4833C65.6899 15.7182 65.2874 15.9661 64.8628 16.227C64.447 16.4793 64.0224 16.7272 63.589 16.9708C63.1644 17.2143 62.753 17.4318 62.355 17.6232C61.9569 17.8145 61.581 17.9711 61.2271 18.0929C60.8821 18.206 60.5814 18.2625 60.3249 18.2625C59.7145 18.2625 59.2545 18.119 58.9449 17.8319C58.6441 17.5449 58.4938 17.1752 58.4938 16.7229C58.4938 16.6533 58.4982 16.6011 58.507 16.5663C58.5689 16.1835 58.6839 15.8138 58.852 15.4572C59.0201 15.1006 59.2103 14.7613 59.4226 14.4395C59.6349 14.1176 59.856 13.8132 60.086 13.5261C60.316 13.2303 60.5239 12.9563 60.7097 12.7041C60.9043 12.4431 61.0635 12.2039 61.1873 11.9864C61.3112 11.769 61.3731 11.5689 61.3731 11.3862C61.3731 11.3427 61.3642 11.2992 61.3466 11.2557C61.3289 11.2122 61.2891 11.1905 61.2271 11.1905C61.121 11.1905 60.9441 11.2296 60.6964 11.3079C60.4575 11.3862 60.201 11.4906 59.9268 11.6211C59.6526 11.7516 59.3916 11.9038 59.1439 12.0778C58.8962 12.243 58.7193 12.4214 58.6132 12.6127C58.4716 12.8563 58.308 13.1651 58.1222 13.5391C57.9365 13.9132 57.7419 14.3046 57.5384 14.7135C57.3438 15.1223 57.1536 15.5268 56.9678 15.9269C56.7821 16.3271 56.6229 16.6707 56.4902 16.9577C56.384 17.21 56.2425 17.4362 56.0656 17.6362C55.8975 17.8363 55.7117 18.0059 55.5083 18.1451C55.3048 18.2843 55.0969 18.393 54.8846 18.4713C54.6723 18.5496 54.4777 18.5887 54.3008 18.5887C54.0974 18.5887 53.9337 18.5365 53.8099 18.4321C53.6949 18.3278 53.6374 18.1581 53.6374 17.9233C53.6374 17.8276 53.6506 17.7102 53.6772 17.571C53.7126 17.4231 53.7789 17.2622 53.8762 17.0882C54.0354 16.7924 54.1947 16.4706 54.3539 16.1227C54.522 15.7747 54.7121 15.3789 54.9244 14.9353C55.1367 14.483 55.38 13.9697 55.6542 13.3956C55.9373 12.8128 56.269 12.143 56.6494 11.3862C56.5256 11.2818 56.4194 11.1557 56.3309 11.0078C56.2513 10.8513 56.2115 10.6599 56.2115 10.4337C56.2115 10.2249 56.2558 10.0466 56.3442 9.89875C56.4327 9.74217 56.5521 9.61604 56.7025 9.52035C56.8528 9.42467 57.0253 9.35508 57.22 9.31159C57.4234 9.25939 57.6357 9.2333 57.8569 9.2333C58.0868 9.2333 58.3168 9.25505 58.5468 9.29854C58.7768 9.33333 58.9803 9.38987 59.1572 9.46816C59.343 9.54645 59.4933 9.64214 59.6083 9.75522C59.7233 9.8683 59.7808 9.99878 59.7808 10.1467C59.7808 10.1728 59.772 10.2076 59.7543 10.251C59.7366 10.2945 59.7145 10.3424 59.688 10.3946C59.6703 10.4468 59.6526 10.4946 59.6349 10.5381C59.6172 10.5816 59.6083 10.6164 59.6083 10.6425C59.6083 10.6599 59.6128 10.6686 59.6216 10.6686H59.6349L59.6614 10.6555Z" fill="#FF1818"/>
<path d="M75.385 10.8513C74.925 10.8686 74.4871 10.8817 74.0713 10.8904C73.6644 10.8991 73.2664 10.9078 72.8772 10.9165C72.4879 10.9165 72.1031 10.9165 71.7228 10.9165C71.3424 10.9165 70.9576 10.9165 70.5684 10.9165C70.3384 11.3601 70.0774 11.8777 69.7855 12.4692C69.5024 13.052 69.2017 13.6653 68.8832 14.309C68.5736 14.9527 68.2596 15.6051 67.9412 16.2662C67.6315 16.9186 67.3352 17.5405 67.0521 18.132C66.7691 18.7149 66.5125 19.2411 66.2826 19.7109C66.0526 20.1893 65.8668 20.5677 65.7253 20.846C65.628 21.0461 65.5085 21.2288 65.367 21.394C65.2255 21.568 65.0707 21.7159 64.9026 21.8377C64.7345 21.9595 64.562 22.0508 64.3851 22.1117C64.2082 22.1813 64.0445 22.2161 63.8942 22.2161C63.6819 22.2161 63.4917 22.1639 63.3236 22.0595C63.1555 21.9551 63.0715 21.7898 63.0715 21.5637C63.0715 21.4506 63.098 21.3158 63.1511 21.1592C63.2042 21.0113 63.2794 20.8373 63.3767 20.6373L68.0606 10.8773H67.3573C66.8708 10.8773 66.5391 10.8034 66.3622 10.6555C66.1852 10.5077 66.0968 10.3337 66.0968 10.1336C66.0968 9.92484 66.2074 9.72477 66.4285 9.5334C66.6497 9.33333 66.9725 9.2333 67.3971 9.2333H68.9629C69.5909 7.98939 70.219 6.96294 70.847 6.15397C71.4839 5.34499 72.1076 4.70564 72.7179 4.23591C73.3283 3.76618 73.921 3.43998 74.4959 3.25731C75.0798 3.07463 75.6371 2.9833 76.1678 2.9833C76.4155 2.9833 76.6499 3.03114 76.8711 3.12683C77.1011 3.22251 77.3001 3.36604 77.4682 3.55741C77.6451 3.74878 77.7866 3.99235 77.8928 4.2881C77.9989 4.57516 78.052 4.9144 78.052 5.30585C78.052 5.67989 77.9989 6.09308 77.8928 6.54541C77.8662 6.66719 77.8131 6.77157 77.7335 6.85856C77.6539 6.93685 77.5655 7.00209 77.4682 7.05428C77.3709 7.10647 77.2735 7.14562 77.1762 7.17171C77.0789 7.18911 76.9949 7.19781 76.9241 7.19781C76.7472 7.19781 76.5836 7.15866 76.4332 7.08038C76.2828 6.99339 76.2076 6.86291 76.2076 6.68894C76.2076 6.57585 76.212 6.47147 76.2209 6.37578C76.2386 6.2801 76.2474 6.18441 76.2474 6.08873C76.2474 5.72338 76.1767 5.46242 76.0351 5.30585C75.9024 5.14927 75.7211 5.07098 75.4911 5.07098C75.2169 5.07098 74.894 5.18841 74.5225 5.42328C74.1598 5.65814 73.7883 5.97129 73.4079 6.36273C73.0364 6.75418 72.6781 7.20216 72.3331 7.70668C71.9881 8.20251 71.7051 8.71138 71.4839 9.2333H74.5756C74.8498 9.2333 75.1063 9.23765 75.3451 9.24635C75.584 9.25505 75.7919 9.28114 75.9688 9.32463C76.1545 9.36813 76.2961 9.44207 76.3934 9.54645C76.4995 9.64214 76.5526 9.78566 76.5526 9.97704C76.5526 10.0727 76.5349 10.1684 76.4995 10.2641C76.4642 10.3598 76.4022 10.4511 76.3138 10.5381C76.2342 10.6164 76.1192 10.686 75.9688 10.7469C75.8184 10.7991 75.6238 10.8339 75.385 10.8513Z" fill="#FF1818"/>
<path d="M80.9579 9.99008C81.2055 9.79871 81.4134 9.65518 81.5815 9.5595C81.7584 9.45511 81.9088 9.38118 82.0326 9.33768C82.1565 9.28549 82.267 9.25505 82.3644 9.24635C82.4705 9.23765 82.5767 9.2333 82.6828 9.2333C82.8686 9.2333 83.0013 9.30289 83.0809 9.44207C83.1605 9.57255 83.2003 9.71173 83.2003 9.8596C83.2003 9.98138 83.1782 10.0945 83.1339 10.1989L80.1617 16.2923C80.5863 15.9791 81.0729 15.6747 81.6213 15.3789C82.1786 15.0745 82.7093 14.8048 83.2136 14.5699C83.7266 14.3264 84.1645 14.1307 84.5272 13.9828C84.8987 13.8349 85.111 13.761 85.1641 13.761C85.3852 13.761 85.5798 13.8436 85.7479 14.0089C85.916 14.1741 86 14.3829 86 14.6352C86 14.8613 85.9115 15.1006 85.7346 15.3528C85.5666 15.6051 85.2658 15.8486 84.8323 16.0835C84.2131 16.4228 83.6735 16.7142 83.2136 16.9577C82.7536 17.1926 82.3467 17.4057 81.9928 17.5971C81.639 17.7884 81.325 17.9624 81.0507 18.119C80.7765 18.2756 80.5156 18.4365 80.2679 18.6018C80.029 18.767 79.7902 18.941 79.5514 19.1237C79.3214 19.3151 79.0693 19.5369 78.795 19.7891C78.5916 20.3111 78.3881 20.8112 78.1847 21.2897C77.9901 21.7681 77.8087 22.19 77.6407 22.5553C77.4814 22.9207 77.3487 23.2164 77.2426 23.4426C77.1364 23.6688 77.0789 23.7905 77.0701 23.8079C76.3536 25.2693 75.5663 26 74.7082 26C74.3544 26 74.0669 25.8826 73.8458 25.6477C73.6246 25.4215 73.5141 25.1127 73.5141 24.7213C73.5141 24.3559 73.5583 23.9906 73.6467 23.6253C73.744 23.2686 73.9077 22.8728 74.1377 22.4379C74.3765 22.003 74.6861 21.5158 75.0665 20.9765C75.4557 20.4459 75.9422 19.8196 76.5261 19.0976L79.1798 13.8132C77.853 15.3615 76.6499 16.5445 75.5707 17.3622C74.4915 18.1799 73.4831 18.5887 72.5454 18.5887C72.2447 18.5887 71.9881 18.5191 71.7758 18.38C71.5635 18.2495 71.4574 18.0277 71.4574 17.7145C71.4574 17.2796 71.5635 16.7881 71.7758 16.2401C71.8997 15.9443 72.0235 15.6747 72.1474 15.4311C72.2712 15.1788 72.3995 14.9309 72.5322 14.6874C72.6648 14.4351 72.802 14.1654 72.9435 13.8784C73.0939 13.5913 73.2531 13.2695 73.4212 12.9128C73.5981 12.5475 73.7883 12.13 73.9917 11.6602C74.204 11.1818 74.4384 10.6251 74.695 9.99008C74.8719 9.65083 75.1019 9.40727 75.385 9.25939C75.668 9.10282 75.9422 9.02453 76.2076 9.02453C76.4818 9.02453 76.7118 9.08977 76.8976 9.22025C77.0922 9.34203 77.1895 9.50731 77.1895 9.71607C77.1895 9.82046 77.1718 9.9118 77.1364 9.99008L74.7082 14.9614C74.5844 15.2136 74.5225 15.4137 74.5225 15.5616C74.5225 15.6921 74.5756 15.7573 74.6817 15.7573C74.779 15.7573 74.9029 15.7095 75.0532 15.6138C75.2036 15.5181 75.3451 15.4094 75.4778 15.2876L80.9579 9.99008Z" fill="#FF1818"/>
<path d="M13.3135 10.8513C12.8535 10.8686 12.4156 10.8817 11.9998 10.8904C11.5929 10.8991 11.1949 10.9078 10.8057 10.9165C10.4164 10.9165 10.0316 10.9165 9.65126 10.9165C9.27089 10.9165 8.8861 10.9165 8.49688 10.9165C8.26689 11.3601 8.00593 11.8777 7.71402 12.4692C7.43095 13.052 7.13019 13.6653 6.81174 14.309C6.50213 14.9527 6.18811 15.6051 5.86965 16.2662C5.56005 16.9186 5.26371 17.5405 4.98064 18.132C4.69758 18.7149 4.44105 19.2411 4.21105 19.7109C3.98106 20.1893 3.7953 20.5677 3.65376 20.846C3.55646 21.0461 3.43704 21.2288 3.2955 21.394C3.15397 21.568 2.99917 21.7159 2.8311 21.8377C2.66302 21.9595 2.49053 22.0508 2.31361 22.1117C2.13669 22.1813 1.97305 22.2161 1.82267 22.2161C1.61037 22.2161 1.42018 22.1639 1.25211 22.0595C1.08404 21.9551 1 21.7898 1 21.5637C1 21.4506 1.02654 21.3158 1.07961 21.1592C1.13269 21.0113 1.20788 20.8373 1.30518 20.6373L5.98907 10.8773H5.28583C4.7993 10.8773 4.46758 10.8034 4.29067 10.6555C4.11375 10.5077 4.02529 10.3337 4.02529 10.1336C4.02529 9.92484 4.13586 9.72477 4.35701 9.5334C4.57816 9.33333 4.90103 9.2333 5.32563 9.2333H6.89135C7.51941 7.98939 8.14747 6.96294 8.77552 6.15397C9.41243 5.34499 10.0361 4.70564 10.6464 4.23591C11.2568 3.76618 11.8495 3.43998 12.4244 3.25731C13.0083 3.07463 13.5656 2.9833 14.0963 2.9833C14.344 2.9833 14.5784 3.03114 14.7996 3.12683C15.0296 3.22251 15.2286 3.36604 15.3967 3.55741C15.5736 3.74878 15.7151 3.99235 15.8213 4.2881C15.9274 4.57516 15.9805 4.9144 15.9805 5.30585C15.9805 5.67989 15.9274 6.09308 15.8213 6.54541C15.7947 6.66719 15.7416 6.77157 15.662 6.85856C15.5824 6.93685 15.494 7.00209 15.3967 7.05428C15.2994 7.10647 15.2021 7.14562 15.1047 7.17171C15.0074 7.18911 14.9234 7.19781 14.8526 7.19781C14.6757 7.19781 14.5121 7.15866 14.3617 7.08038C14.2113 6.99339 14.1361 6.86291 14.1361 6.68894C14.1361 6.57585 14.1405 6.47147 14.1494 6.37578C14.1671 6.2801 14.1759 6.18441 14.1759 6.08873C14.1759 5.72338 14.1052 5.46242 13.9636 5.30585C13.8309 5.14927 13.6496 5.07098 13.4196 5.07098C13.1454 5.07098 12.8225 5.18841 12.451 5.42328C12.0883 5.65814 11.7168 5.97129 11.3364 6.36273C10.9649 6.75418 10.6066 7.20216 10.2616 7.70668C9.91664 8.20251 9.63357 8.71138 9.41243 9.2333H12.5041C12.7783 9.2333 13.0348 9.23765 13.2737 9.24635C13.5125 9.25505 13.7204 9.28114 13.8973 9.32463C14.083 9.36813 14.2246 9.44207 14.3219 9.54645C14.428 9.64214 14.4811 9.78566 14.4811 9.97704C14.4811 10.0727 14.4634 10.1684 14.428 10.2641C14.3927 10.3598 14.3307 10.4511 14.2423 10.5381C14.1627 10.6164 14.0477 10.686 13.8973 10.7469C13.7469 10.7991 13.5523 10.8339 13.3135 10.8513Z" stroke="black" stroke-width="0.2" mask="url(#path-1-outside-1)"/>
<path d="M16.352 10.5642C16.3078 10.5555 16.268 10.5511 16.2326 10.5511C16.1972 10.5511 16.1574 10.5511 16.1132 10.5511C15.777 10.5511 15.463 10.6164 15.1711 10.7469C14.8792 10.8773 14.6094 11.0513 14.3617 11.2688C14.1229 11.4776 13.9061 11.7168 13.7115 11.9864C13.5258 12.2561 13.3577 12.5257 13.2073 12.7954C13.0569 13.0564 12.9287 13.3086 12.8225 13.5522C12.7252 13.7958 12.65 14.0002 12.5969 14.1654C12.9065 14.0089 13.225 13.8305 13.5523 13.6305C13.8884 13.4304 14.2025 13.239 14.4944 13.0564C14.7863 12.8737 15.0384 12.7084 15.2507 12.5605C15.4719 12.4127 15.6267 12.3126 15.7151 12.2604C16.1132 12.0169 16.3874 11.7907 16.5378 11.5819C16.6882 11.3645 16.7633 11.1775 16.7633 11.0209C16.7633 10.8904 16.7191 10.786 16.6307 10.7077C16.551 10.6294 16.4582 10.5816 16.352 10.5642ZM16.8297 8.76357C17.5639 8.76357 18.1123 8.93754 18.475 9.28549C18.8377 9.63344 19.019 10.1162 19.019 10.7338C19.019 11.0992 18.9217 11.4819 18.7271 11.882C18.5325 12.2822 18.1964 12.691 17.7187 13.1086C17.241 13.5174 16.5997 13.9393 15.7947 14.3742C14.9986 14.8005 13.999 15.231 12.796 15.666C12.8402 15.9182 12.9773 16.1183 13.2073 16.2662C13.4373 16.4054 13.7425 16.4749 14.1229 16.4749C14.5298 16.4749 14.9632 16.4184 15.4232 16.3053C15.892 16.1835 16.352 16.0313 16.8032 15.8486C17.2631 15.666 17.7099 15.4703 18.1433 15.2615C18.5768 15.044 18.966 14.8396 19.311 14.6482C19.6648 14.4569 19.9567 14.2916 20.1867 14.1524C20.4255 14.0132 20.5848 13.9262 20.6644 13.8914C20.744 13.8392 20.8148 13.8088 20.8767 13.8001C20.9474 13.7914 21.0094 13.7871 21.0624 13.7871C21.1686 13.7871 21.2571 13.8132 21.3278 13.8653C21.3986 13.9088 21.4561 13.9654 21.5003 14.035C21.5534 14.0959 21.5888 14.1654 21.6065 14.2437C21.6242 14.3133 21.633 14.3742 21.633 14.4264C21.633 14.5047 21.6242 14.6004 21.6065 14.7135C21.5888 14.8178 21.5224 14.9396 21.4074 15.0788C21.3632 15.1223 21.2128 15.2397 20.9563 15.4311C20.7086 15.6225 20.3857 15.8486 19.9877 16.1096C19.5896 16.3706 19.1252 16.6489 18.5944 16.9447C18.0725 17.2317 17.5152 17.497 16.9226 17.7406C16.3387 17.9842 15.7284 18.1842 15.0915 18.3408C14.4546 18.5061 13.8265 18.5887 13.2073 18.5887C12.6766 18.5887 12.2033 18.4887 11.7875 18.2886C11.3806 18.0886 11.0312 17.8189 10.7393 17.4796C10.4562 17.1404 10.2395 16.749 10.0891 16.3053C9.93876 15.8617 9.86357 15.3963 9.86357 14.9092C9.86357 14.5351 9.93876 14.1263 10.0891 13.6827C10.2395 13.2303 10.4562 12.778 10.7393 12.3257C11.0224 11.8733 11.3674 11.4341 11.7743 11.0078C12.19 10.5729 12.6544 10.1902 13.1675 9.8596C13.6806 9.52905 14.2423 9.26374 14.8526 9.06367C15.4719 8.8636 16.1309 8.76357 16.8297 8.76357Z" stroke="black" stroke-width="0.2" mask="url(#path-1-outside-1)"/>
<path d="M22.3362 10.3424C22.5132 9.96834 22.7343 9.68998 22.9997 9.50731C23.2651 9.32463 23.526 9.2333 23.7825 9.2333C23.9948 9.2333 24.185 9.31159 24.3531 9.46816C24.5212 9.61604 24.6052 9.83786 24.6052 10.1336C24.6052 10.2467 24.5919 10.3685 24.5654 10.499C24.5389 10.6294 24.4902 10.7686 24.4195 10.9165C24.6141 10.6729 24.8927 10.425 25.2554 10.1728C25.6181 9.9118 26.0161 9.68128 26.4496 9.48121C26.8919 9.27244 27.343 9.10282 27.803 8.97234C28.2718 8.84186 28.7141 8.77662 29.1299 8.77662C29.5987 8.77662 29.9879 8.8897 30.2975 9.11587C30.616 9.33333 30.7752 9.70738 30.7752 10.238C30.7752 10.5511 30.7266 10.8773 30.6293 11.2166C30.532 11.5558 30.4037 11.8951 30.2445 12.2343C30.0941 12.5736 29.9216 12.9085 29.727 13.239C29.5412 13.5609 29.3554 13.8653 29.1697 14.1524C28.9839 14.4395 28.8114 14.7048 28.6522 14.9483C28.5018 15.1832 28.3824 15.3789 28.2939 15.5355C28.1789 15.6747 28.1215 15.8356 28.1215 16.0183C28.1215 16.0879 28.1436 16.1487 28.1878 16.2009C28.232 16.2531 28.3028 16.2792 28.4001 16.2792C28.462 16.2792 28.5328 16.2749 28.6124 16.2662C28.692 16.2488 28.7893 16.2009 28.9043 16.1227C29.382 15.9487 29.8685 15.7312 30.3639 15.4703C30.8681 15.2093 31.3502 14.9353 31.8102 14.6482C32.2702 14.3525 32.6903 14.0611 33.0707 13.774C33.4599 13.4783 33.7828 13.2129 34.0393 12.9781C34.1101 12.9172 34.1809 12.8737 34.2516 12.8476C34.3224 12.8215 34.3888 12.8085 34.4507 12.8085C34.6011 12.8085 34.716 12.865 34.7957 12.9781C34.8841 13.0912 34.9284 13.2347 34.9284 13.4087C34.9284 13.6783 34.8399 13.9784 34.663 14.309C34.4949 14.6395 34.2251 14.9483 33.8536 15.2354C33.3494 15.592 32.885 15.9182 32.4604 16.214C32.0446 16.5097 31.6156 16.7881 31.1733 17.0491C30.7398 17.3013 30.271 17.5405 29.7668 17.7667C29.2714 17.9842 28.6876 18.1886 28.0153 18.38C27.7853 18.4495 27.573 18.5017 27.3784 18.5365C27.1926 18.5713 27.0201 18.5887 26.8609 18.5887C26.3921 18.5887 26.0471 18.4626 25.8259 18.2103C25.6136 17.9494 25.5075 17.5884 25.5075 17.1273C25.5075 17.0665 25.5075 17.0099 25.5075 16.9577C25.5163 16.8968 25.5252 16.8316 25.534 16.762C25.5517 16.4923 25.6225 16.1966 25.7463 15.8747C25.879 15.5529 26.0338 15.2223 26.2107 14.8831C26.3965 14.5438 26.5911 14.2089 26.7946 13.8784C26.998 13.5391 27.1838 13.2216 27.3519 12.9259C27.5288 12.6214 27.6747 12.3518 27.7897 12.1169C27.9047 11.882 27.9622 11.6907 27.9622 11.5428C27.9622 11.4123 27.9224 11.3036 27.8428 11.2166C27.772 11.1209 27.6615 11.0731 27.5111 11.0731C26.9449 11.0731 26.4054 11.2383 25.8923 11.5689C25.3881 11.8994 24.9148 12.3083 24.4725 12.7954C24.0302 13.2738 23.6233 13.7827 23.2518 14.322C22.8803 14.8613 22.553 15.3441 22.2699 15.7704C22.093 16.0574 21.9293 16.3662 21.779 16.6968C21.6374 17.0186 21.487 17.3231 21.3278 17.6101C21.1686 17.8885 20.9873 18.119 20.7838 18.3017C20.5892 18.493 20.3415 18.5887 20.0407 18.5887C19.7311 18.5887 19.4879 18.493 19.311 18.3017C19.134 18.1103 19.0456 17.8754 19.0456 17.5971C19.0456 17.4492 19.1075 17.21 19.2313 16.8794C19.3552 16.5489 19.5144 16.1661 19.709 15.7312C19.9036 15.2963 20.1204 14.8309 20.3592 14.3351C20.6069 13.8305 20.8501 13.3347 21.089 12.8476C21.3367 12.3518 21.5711 11.8864 21.7922 11.4515C22.0134 11.0165 22.1947 10.6468 22.3362 10.3424Z" stroke="black" stroke-width="0.2" mask="url(#path-1-outside-1)"/>
<path d="M40.9259 15.6138C40.917 15.6312 40.9126 15.6529 40.9126 15.679C40.9126 15.7051 40.9082 15.7269 40.8993 15.7443C40.8993 15.9008 40.9391 16.0661 41.0187 16.2401C41.0983 16.4054 41.2266 16.488 41.4035 16.488C41.4743 16.488 41.5274 16.4793 41.5628 16.4619C42.067 16.314 42.5756 16.0792 43.0887 15.7573C43.6106 15.4355 44.1104 15.0832 44.588 14.7004C45.0657 14.3177 45.5036 13.9262 45.9017 13.5261C46.3086 13.126 46.6447 12.7693 46.9101 12.4562C47.0339 12.3083 47.171 12.2343 47.3214 12.2343C47.4541 12.2343 47.5691 12.2952 47.6664 12.417C47.7726 12.5388 47.8256 12.7041 47.8256 12.9128C47.8256 13.0781 47.777 13.2738 47.6797 13.5C47.5912 13.7262 47.4408 13.9697 47.2285 14.2307C46.7066 14.7961 46.1715 15.3398 45.623 15.8617C45.0746 16.3836 44.5217 16.849 43.9644 17.2578C43.4071 17.658 42.8498 17.9798 42.2925 18.2234C41.7441 18.4669 41.2045 18.5887 40.6737 18.5887C40.028 18.5887 39.5194 18.4104 39.1478 18.0538C38.7763 17.6884 38.5905 17.1447 38.5905 16.4228C38.5905 16.3793 38.5905 16.3358 38.5905 16.2923C38.5905 16.2401 38.595 16.1922 38.6038 16.1487C38.4004 16.5141 38.1394 16.849 37.821 17.1534C37.5025 17.4492 37.1531 17.7058 36.7727 17.9233C36.3923 18.132 35.9987 18.293 35.5918 18.4061C35.1849 18.5278 34.7912 18.5887 34.4109 18.5887C34.0836 18.5887 33.7828 18.5452 33.5086 18.4582C33.2344 18.3713 32.9955 18.2321 32.7921 18.0407C32.5975 17.8493 32.4427 17.6058 32.3277 17.31C32.2215 17.0143 32.1684 16.6576 32.1684 16.2401C32.1684 15.5094 32.2834 14.8178 32.5134 14.1654C32.7434 13.5043 33.0486 12.8998 33.429 12.3518C33.8093 11.7951 34.2428 11.2992 34.7293 10.8643C35.2247 10.4207 35.7333 10.0466 36.2552 9.74217C36.786 9.42902 37.3123 9.18981 37.8342 9.02453C38.3561 8.85926 38.8338 8.77662 39.2673 8.77662C39.7715 8.77662 40.2049 8.85926 40.5676 9.02453C40.7445 9.11152 40.9082 9.22895 41.0585 9.37683C41.0939 9.29854 41.1293 9.2246 41.1647 9.15501C41.2532 8.94624 41.3328 8.76792 41.4035 8.62004C41.4743 8.46347 41.5229 8.35038 41.5495 8.28079C41.576 8.20251 41.6512 8.01983 41.7751 7.73278C41.8989 7.44572 42.0404 7.11082 42.1997 6.72808C42.3677 6.33664 42.5446 5.9191 42.7304 5.47547C42.925 5.03184 43.1019 4.6143 43.2612 4.22286C43.4204 3.83142 43.5575 3.49652 43.6725 3.21816C43.7875 2.93111 43.8583 2.74843 43.8848 2.67015C43.9467 2.45268 44.0308 2.24391 44.1369 2.04384C44.2431 1.83507 44.3669 1.65675 44.5084 1.50887C44.6588 1.3523 44.8313 1.23051 45.0259 1.14353C45.2205 1.04784 45.4417 1 45.6894 1C46.0255 1 46.3041 1.07394 46.5253 1.22182C46.7464 1.361 46.857 1.635 46.857 2.04384C46.857 2.20912 46.8349 2.37874 46.7907 2.55271C46.7464 2.72669 46.6934 2.89631 46.6314 3.06159C46.5784 3.22686 46.5164 3.39214 46.4457 3.55741C46.3838 3.71399 46.3263 3.86186 46.2732 4.00104C45.8309 4.87091 45.3665 5.81907 44.88 6.84551C44.3934 7.86326 43.9113 8.8897 43.4337 9.92484C42.956 10.96 42.5004 11.969 42.067 12.952C41.6335 13.9349 41.2532 14.8222 40.9259 15.6138ZM40.5278 10.512C39.997 10.5294 39.4397 10.6425 38.8559 10.8513C38.1836 11.0774 37.5688 11.4167 37.0116 11.869C36.4543 12.3126 35.981 12.8606 35.5918 13.513C35.2114 14.1654 34.9947 14.9135 34.9416 15.7573C34.9416 16.1053 35.092 16.2792 35.3928 16.2792C35.7643 16.2792 36.1181 16.2053 36.4543 16.0574C36.7904 15.9008 37.1089 15.6964 37.4096 15.4442C37.7192 15.1832 38.0067 14.8874 38.2721 14.5569C38.5375 14.2263 38.7807 13.8827 39.0019 13.5261C39.2319 13.1695 39.4353 12.8172 39.6122 12.4692C39.798 12.1126 39.9572 11.782 40.0899 11.4776C40.1341 11.3819 40.1961 11.247 40.2757 11.0731C40.3464 10.9078 40.4305 10.7208 40.5278 10.512Z" stroke="black" stroke-width="0.2" mask="url(#path-1-outside-1)"/>
<path d="M51.1694 10.5642C51.1251 10.5555 51.0853 10.5511 51.05 10.5511C51.0146 10.5511 50.9748 10.5511 50.9305 10.5511C50.5944 10.5511 50.2804 10.6164 49.9885 10.7469C49.6965 10.8773 49.4267 11.0513 49.1791 11.2688C48.9402 11.4776 48.7235 11.7168 48.5289 11.9864C48.3431 12.2561 48.175 12.5257 48.0247 12.7954C47.8743 13.0564 47.746 13.3086 47.6399 13.5522C47.5426 13.7958 47.4674 14.0002 47.4143 14.1654C47.7239 14.0089 48.0424 13.8305 48.3697 13.6305C48.7058 13.4304 49.0198 13.239 49.3117 13.0564C49.6037 12.8737 49.8558 12.7084 50.0681 12.5605C50.2892 12.4127 50.444 12.3126 50.5325 12.2604C50.9305 12.0169 51.2048 11.7907 51.3551 11.5819C51.5055 11.3645 51.5807 11.1775 51.5807 11.0209C51.5807 10.8904 51.5365 10.786 51.448 10.7077C51.3684 10.6294 51.2755 10.5816 51.1694 10.5642ZM51.6471 8.76357C52.3813 8.76357 52.9297 8.93754 53.2924 9.28549C53.6551 9.63344 53.8364 10.1162 53.8364 10.7338C53.8364 11.0992 53.7391 11.4819 53.5445 11.882C53.3499 12.2822 53.0137 12.691 52.5361 13.1086C52.0584 13.5174 51.4171 13.9393 50.6121 14.3742C49.816 14.8005 48.8164 15.231 47.6133 15.666C47.6576 15.9182 47.7947 16.1183 48.0247 16.2662C48.2547 16.4054 48.5598 16.4749 48.9402 16.4749C49.3471 16.4749 49.7806 16.4184 50.2406 16.3053C50.7094 16.1835 51.1694 16.0313 51.6205 15.8486C52.0805 15.666 52.5272 15.4703 52.9607 15.2615C53.3941 15.044 53.7833 14.8396 54.1283 14.6482C54.4822 14.4569 54.7741 14.2916 55.0041 14.1524C55.2429 14.0132 55.4021 13.9262 55.4817 13.8914C55.5614 13.8392 55.6321 13.8088 55.694 13.8001C55.7648 13.7914 55.8267 13.7871 55.8798 13.7871C55.986 13.7871 56.0744 13.8132 56.1452 13.8653C56.2159 13.9088 56.2734 13.9654 56.3177 14.035C56.3707 14.0959 56.4061 14.1654 56.4238 14.2437C56.4415 14.3133 56.4504 14.3742 56.4504 14.4264C56.4504 14.5047 56.4415 14.6004 56.4238 14.7135C56.4061 14.8178 56.3398 14.9396 56.2248 15.0788C56.1806 15.1223 56.0302 15.2397 55.7737 15.4311C55.526 15.6225 55.2031 15.8486 54.805 16.1096C54.407 16.3706 53.9426 16.6489 53.4118 16.9447C52.8899 17.2317 52.3326 17.497 51.7399 17.7406C51.1561 17.9842 50.5457 18.1842 49.9088 18.3408C49.2719 18.5061 48.6439 18.5887 48.0247 18.5887C47.4939 18.5887 47.0207 18.4887 46.6049 18.2886C46.198 18.0886 45.8486 17.8189 45.5567 17.4796C45.2736 17.1404 45.0569 16.749 44.9065 16.3053C44.7561 15.8617 44.6809 15.3963 44.6809 14.9092C44.6809 14.5351 44.7561 14.1263 44.9065 13.6827C45.0569 13.2303 45.2736 12.778 45.5567 12.3257C45.8397 11.8733 46.1847 11.4341 46.5916 11.0078C47.0074 10.5729 47.4718 10.1902 47.9849 9.8596C48.4979 9.52905 49.0596 9.26374 49.67 9.06367C50.2892 8.8636 50.9482 8.76357 51.6471 8.76357Z" stroke="black" stroke-width="0.2" mask="url(#path-1-outside-1)"/>
<path d="M59.6614 10.6555C60.0064 10.4468 60.3602 10.2554 60.7229 10.0814C61.0944 9.90745 61.4527 9.75957 61.7977 9.63779C62.1427 9.50731 62.47 9.40727 62.7796 9.33768C63.098 9.25939 63.3811 9.22025 63.6288 9.22025C64.0269 9.22025 64.332 9.31594 64.5443 9.50731C64.7655 9.68998 64.8761 10.0031 64.8761 10.4468C64.8761 10.5424 64.8716 10.6468 64.8628 10.7599C64.8539 10.8643 64.8363 10.9774 64.8097 11.0992C64.7655 11.3253 64.6328 11.5906 64.4116 11.8951C64.1905 12.1995 63.9295 12.517 63.6288 12.8476C63.3369 13.1781 63.0184 13.513 62.6734 13.8523C62.3373 14.1828 62.0233 14.4916 61.7313 14.7787C61.4483 15.0571 61.2094 15.3006 61.0148 15.5094C60.8291 15.7182 60.7362 15.8617 60.7362 15.94C60.7362 16.0096 60.7406 16.0574 60.7495 16.0835C60.7583 16.1096 60.7981 16.1227 60.8689 16.1227C61.3466 15.9226 61.8773 15.6834 62.4611 15.405C63.0538 15.118 63.6421 14.8265 64.2259 14.5308C64.8097 14.235 65.3626 13.948 65.8845 13.6696C66.4064 13.3826 66.8487 13.1347 67.2114 12.9259C67.291 12.8824 67.3706 12.8476 67.4502 12.8215C67.5387 12.7867 67.6183 12.7693 67.689 12.7693C67.8483 12.7693 67.981 12.8215 68.0871 12.9259C68.1933 13.0303 68.2463 13.1695 68.2463 13.3434C68.2463 13.5435 68.1579 13.774 67.981 14.035C67.8129 14.2872 67.5254 14.5525 67.1185 14.8309C66.8089 15.0223 66.4595 15.2397 66.0702 15.4833C65.6899 15.7182 65.2874 15.9661 64.8628 16.227C64.447 16.4793 64.0224 16.7272 63.589 16.9708C63.1644 17.2143 62.753 17.4318 62.355 17.6232C61.9569 17.8145 61.581 17.9711 61.2271 18.0929C60.8821 18.206 60.5814 18.2625 60.3249 18.2625C59.7145 18.2625 59.2545 18.119 58.9449 17.8319C58.6441 17.5449 58.4938 17.1752 58.4938 16.7229C58.4938 16.6533 58.4982 16.6011 58.507 16.5663C58.5689 16.1835 58.6839 15.8138 58.852 15.4572C59.0201 15.1006 59.2103 14.7613 59.4226 14.4395C59.6349 14.1176 59.856 13.8132 60.086 13.5261C60.316 13.2303 60.5239 12.9563 60.7097 12.7041C60.9043 12.4431 61.0635 12.2039 61.1873 11.9864C61.3112 11.769 61.3731 11.5689 61.3731 11.3862C61.3731 11.3427 61.3642 11.2992 61.3466 11.2557C61.3289 11.2122 61.2891 11.1905 61.2271 11.1905C61.121 11.1905 60.9441 11.2296 60.6964 11.3079C60.4575 11.3862 60.201 11.4906 59.9268 11.6211C59.6526 11.7516 59.3916 11.9038 59.1439 12.0778C58.8962 12.243 58.7193 12.4214 58.6132 12.6127C58.4716 12.8563 58.308 13.1651 58.1222 13.5391C57.9365 13.9132 57.7419 14.3046 57.5384 14.7135C57.3438 15.1223 57.1536 15.5268 56.9678 15.9269C56.7821 16.3271 56.6229 16.6707 56.4902 16.9577C56.384 17.21 56.2425 17.4362 56.0656 17.6362C55.8975 17.8363 55.7117 18.0059 55.5083 18.1451C55.3048 18.2843 55.0969 18.393 54.8846 18.4713C54.6723 18.5496 54.4777 18.5887 54.3008 18.5887C54.0974 18.5887 53.9337 18.5365 53.8099 18.4321C53.6949 18.3278 53.6374 18.1581 53.6374 17.9233C53.6374 17.8276 53.6506 17.7102 53.6772 17.571C53.7126 17.4231 53.7789 17.2622 53.8762 17.0882C54.0354 16.7924 54.1947 16.4706 54.3539 16.1227C54.522 15.7747 54.7121 15.3789 54.9244 14.9353C55.1367 14.483 55.38 13.9697 55.6542 13.3956C55.9373 12.8128 56.269 12.143 56.6494 11.3862C56.5256 11.2818 56.4194 11.1557 56.3309 11.0078C56.2513 10.8513 56.2115 10.6599 56.2115 10.4337C56.2115 10.2249 56.2558 10.0466 56.3442 9.89875C56.4327 9.74217 56.5521 9.61604 56.7025 9.52035C56.8528 9.42467 57.0253 9.35508 57.22 9.31159C57.4234 9.25939 57.6357 9.2333 57.8569 9.2333C58.0868 9.2333 58.3168 9.25505 58.5468 9.29854C58.7768 9.33333 58.9803 9.38987 59.1572 9.46816C59.343 9.54645 59.4933 9.64214 59.6083 9.75522C59.7233 9.8683 59.7808 9.99878 59.7808 10.1467C59.7808 10.1728 59.772 10.2076 59.7543 10.251C59.7366 10.2945 59.7145 10.3424 59.688 10.3946C59.6703 10.4468 59.6526 10.4946 59.6349 10.5381C59.6172 10.5816 59.6083 10.6164 59.6083 10.6425C59.6083 10.6599 59.6128 10.6686 59.6216 10.6686H59.6349L59.6614 10.6555Z" stroke="black" stroke-width="0.2" mask="url(#path-1-outside-1)"/>
<path d="M75.385 10.8513C74.925 10.8686 74.4871 10.8817 74.0713 10.8904C73.6644 10.8991 73.2664 10.9078 72.8772 10.9165C72.4879 10.9165 72.1031 10.9165 71.7228 10.9165C71.3424 10.9165 70.9576 10.9165 70.5684 10.9165C70.3384 11.3601 70.0774 11.8777 69.7855 12.4692C69.5024 13.052 69.2017 13.6653 68.8832 14.309C68.5736 14.9527 68.2596 15.6051 67.9412 16.2662C67.6315 16.9186 67.3352 17.5405 67.0521 18.132C66.7691 18.7149 66.5125 19.2411 66.2826 19.7109C66.0526 20.1893 65.8668 20.5677 65.7253 20.846C65.628 21.0461 65.5085 21.2288 65.367 21.394C65.2255 21.568 65.0707 21.7159 64.9026 21.8377C64.7345 21.9595 64.562 22.0508 64.3851 22.1117C64.2082 22.1813 64.0445 22.2161 63.8942 22.2161C63.6819 22.2161 63.4917 22.1639 63.3236 22.0595C63.1555 21.9551 63.0715 21.7898 63.0715 21.5637C63.0715 21.4506 63.098 21.3158 63.1511 21.1592C63.2042 21.0113 63.2794 20.8373 63.3767 20.6373L68.0606 10.8773H67.3573C66.8708 10.8773 66.5391 10.8034 66.3622 10.6555C66.1852 10.5077 66.0968 10.3337 66.0968 10.1336C66.0968 9.92484 66.2074 9.72477 66.4285 9.5334C66.6497 9.33333 66.9725 9.2333 67.3971 9.2333H68.9629C69.5909 7.98939 70.219 6.96294 70.847 6.15397C71.4839 5.34499 72.1076 4.70564 72.7179 4.23591C73.3283 3.76618 73.921 3.43998 74.4959 3.25731C75.0798 3.07463 75.6371 2.9833 76.1678 2.9833C76.4155 2.9833 76.6499 3.03114 76.8711 3.12683C77.1011 3.22251 77.3001 3.36604 77.4682 3.55741C77.6451 3.74878 77.7866 3.99235 77.8928 4.2881C77.9989 4.57516 78.052 4.9144 78.052 5.30585C78.052 5.67989 77.9989 6.09308 77.8928 6.54541C77.8662 6.66719 77.8131 6.77157 77.7335 6.85856C77.6539 6.93685 77.5655 7.00209 77.4682 7.05428C77.3709 7.10647 77.2735 7.14562 77.1762 7.17171C77.0789 7.18911 76.9949 7.19781 76.9241 7.19781C76.7472 7.19781 76.5836 7.15866 76.4332 7.08038C76.2828 6.99339 76.2076 6.86291 76.2076 6.68894C76.2076 6.57585 76.212 6.47147 76.2209 6.37578C76.2386 6.2801 76.2474 6.18441 76.2474 6.08873C76.2474 5.72338 76.1767 5.46242 76.0351 5.30585C75.9024 5.14927 75.7211 5.07098 75.4911 5.07098C75.2169 5.07098 74.894 5.18841 74.5225 5.42328C74.1598 5.65814 73.7883 5.97129 73.4079 6.36273C73.0364 6.75418 72.6781 7.20216 72.3331 7.70668C71.9881 8.20251 71.7051 8.71138 71.4839 9.2333H74.5756C74.8498 9.2333 75.1063 9.23765 75.3451 9.24635C75.584 9.25505 75.7919 9.28114 75.9688 9.32463C76.1545 9.36813 76.2961 9.44207 76.3934 9.54645C76.4995 9.64214 76.5526 9.78566 76.5526 9.97704C76.5526 10.0727 76.5349 10.1684 76.4995 10.2641C76.4642 10.3598 76.4022 10.4511 76.3138 10.5381C76.2342 10.6164 76.1192 10.686 75.9688 10.7469C75.8184 10.7991 75.6238 10.8339 75.385 10.8513Z" stroke="black" stroke-width="0.2" mask="url(#path-1-outside-1)"/>
<path d="M80.9579 9.99008C81.2055 9.79871 81.4134 9.65518 81.5815 9.5595C81.7584 9.45511 81.9088 9.38118 82.0326 9.33768C82.1565 9.28549 82.267 9.25505 82.3644 9.24635C82.4705 9.23765 82.5767 9.2333 82.6828 9.2333C82.8686 9.2333 83.0013 9.30289 83.0809 9.44207C83.1605 9.57255 83.2003 9.71173 83.2003 9.8596C83.2003 9.98138 83.1782 10.0945 83.1339 10.1989L80.1617 16.2923C80.5863 15.9791 81.0729 15.6747 81.6213 15.3789C82.1786 15.0745 82.7093 14.8048 83.2136 14.5699C83.7266 14.3264 84.1645 14.1307 84.5272 13.9828C84.8987 13.8349 85.111 13.761 85.1641 13.761C85.3852 13.761 85.5798 13.8436 85.7479 14.0089C85.916 14.1741 86 14.3829 86 14.6352C86 14.8613 85.9115 15.1006 85.7346 15.3528C85.5666 15.6051 85.2658 15.8486 84.8323 16.0835C84.2131 16.4228 83.6735 16.7142 83.2136 16.9577C82.7536 17.1926 82.3467 17.4057 81.9928 17.5971C81.639 17.7884 81.325 17.9624 81.0507 18.119C80.7765 18.2756 80.5156 18.4365 80.2679 18.6018C80.029 18.767 79.7902 18.941 79.5514 19.1237C79.3214 19.3151 79.0693 19.5369 78.795 19.7891C78.5916 20.3111 78.3881 20.8112 78.1847 21.2897C77.9901 21.7681 77.8087 22.19 77.6407 22.5553C77.4814 22.9207 77.3487 23.2164 77.2426 23.4426C77.1364 23.6688 77.0789 23.7905 77.0701 23.8079C76.3536 25.2693 75.5663 26 74.7082 26C74.3544 26 74.0669 25.8826 73.8458 25.6477C73.6246 25.4215 73.5141 25.1127 73.5141 24.7213C73.5141 24.3559 73.5583 23.9906 73.6467 23.6253C73.744 23.2686 73.9077 22.8728 74.1377 22.4379C74.3765 22.003 74.6861 21.5158 75.0665 20.9765C75.4557 20.4459 75.9422 19.8196 76.5261 19.0976L79.1798 13.8132C77.853 15.3615 76.6499 16.5445 75.5707 17.3622C74.4915 18.1799 73.4831 18.5887 72.5454 18.5887C72.2447 18.5887 71.9881 18.5191 71.7758 18.38C71.5635 18.2495 71.4574 18.0277 71.4574 17.7145C71.4574 17.2796 71.5635 16.7881 71.7758 16.2401C71.8997 15.9443 72.0235 15.6747 72.1474 15.4311C72.2712 15.1788 72.3995 14.9309 72.5322 14.6874C72.6648 14.4351 72.802 14.1654 72.9435 13.8784C73.0939 13.5913 73.2531 13.2695 73.4212 12.9128C73.5981 12.5475 73.7883 12.13 73.9917 11.6602C74.204 11.1818 74.4384 10.6251 74.695 9.99008C74.8719 9.65083 75.1019 9.40727 75.385 9.25939C75.668 9.10282 75.9422 9.02453 76.2076 9.02453C76.4818 9.02453 76.7118 9.08977 76.8976 9.22025C77.0922 9.34203 77.1895 9.50731 77.1895 9.71607C77.1895 9.82046 77.1718 9.9118 77.1364 9.99008L74.7082 14.9614C74.5844 15.2136 74.5225 15.4137 74.5225 15.5616C74.5225 15.6921 74.5756 15.7573 74.6817 15.7573C74.779 15.7573 74.9029 15.7095 75.0532 15.6138C75.2036 15.5181 75.3451 15.4094 75.4778 15.2876L80.9579 9.99008Z" stroke="black" stroke-width="0.2" mask="url(#path-1-outside-1)"/>
</g>
</svg>
